<?xml version="1.0" standalone="no"?>
<!DOCTYPE svg PUBLIC "-//W3C//DTD SVG 20010904//EN"
 "http://www.w3.org/TR/2001/REC-SVG-20010904/DTD/svg10.dtd">
<svg version="1.0" xmlns="http://www.w3.org/2000/svg"
 width="1248.000000pt" height="1289.000000pt" viewBox="0 0 1248.000000 1289.000000"
 preserveAspectRatio="xMidYMid meet">

<g transform="translate(0.000000,1289.000000) scale(0.100000,-0.100000)"
fill="#000000" stroke="none">
<path d="M3130 12558 c0 -4 4 -8 9 -8 6 0 12 4 15 8 3 5 -1 9 -9 9 -8 0 -15
-4 -15 -9z"/>
<path d="M3286 12492 c-12 -12 -5 -21 12 -16 14 5 14 4 2 -5 -8 -5 -11 -13 -7
-17 8 -9 24 5 29 25 3 13 -26 24 -36 13z"/>
<path d="M3073 12459 c4 -12 0 -15 -20 -11 -18 3 -25 0 -30 -17 -3 -11 -12
-21 -19 -21 -8 0 -14 -4 -14 -10 0 -15 33 -12 68 6 41 20 45 27 26 50 -12 14
-14 15 -11 3z"/>
<path d="M3253 12450 c-3 -11 -11 -20 -19 -20 -7 0 -16 -5 -20 -11 -6 -11 -8
-22 -13 -67 0 -8 -7 -12 -13 -10 -14 5 -38 -15 -38 -30 0 -6 -4 -12 -10 -14
-5 -2 -6 -9 -1 -16 5 -9 20 2 49 41 23 30 42 59 42 65 0 6 9 18 21 26 13 9 18
19 14 27 -5 8 -4 10 3 5 7 -4 12 -1 12 8 0 23 -21 20 -27 -4z"/>
<path d="M2892 12425 c-6 -14 -17 -25 -23 -25 -14 0 -59 -50 -59 -66 0 -6 -10
-19 -22 -30 -19 -17 -21 -17 -15 -1 5 13 1 17 -16 16 -12 0 -16 -3 -9 -6 17
-7 15 -43 -4 -64 -8 -9 -17 -27 -18 -40 -4 -29 -24 -81 -34 -89 -4 -3 -15 -17
-25 -32 -14 -22 -15 -36 -8 -66 5 -23 5 -46 -1 -56 -5 -9 -6 -16 -2 -16 3 0 1
-6 -5 -14 -10 -12 -8 -19 8 -35 12 -12 24 -21 29 -21 4 0 8 33 9 73 3 68 26
157 48 184 5 7 16 19 23 28 8 9 11 23 8 31 -3 8 3 23 14 34 11 11 20 23 20 26
0 3 8 17 19 30 l19 24 -2 -29 c0 -16 -4 -27 -8 -25 -5 3 -8 -2 -8 -10 0 -10 9
-16 22 -16 20 0 20 -1 5 -18 -10 -10 -17 -28 -17 -40 0 -13 -6 -22 -15 -22 -9
0 -12 -6 -9 -15 6 -15 26 -22 22 -7 -3 11 23 56 38 65 7 4 16 24 20 45 4 20
11 40 16 43 5 3 10 17 10 30 1 13 5 29 9 34 4 6 10 23 13 39 3 16 7 31 10 33
8 8 -21 33 -37 33 -7 0 -19 -11 -25 -25z m8 -119 c0 -2 -7 -9 -15 -16 -13 -11
-14 -10 -9 4 5 14 24 23 24 12z"/>
<path d="M3432 12414 c-11 -12 -9 -14 7 -14 23 0 36 16 18 23 -6 2 -18 -2 -25
-9z"/>
<path d="M3577 12371 c-3 -14 -1 -18 9 -14 8 3 14 11 14 19 0 21 -17 17 -23
-5z"/>
<path d="M3397 12373 c-12 -12 -7 -22 8 -17 8 4 15 10 15 15 0 11 -14 12 -23
2z"/>
<path d="M3707 12353 c-10 -9 -9 -23 2 -23 5 0 11 7 15 15 5 15 -5 20 -17 8z"/>
<path d="M3556 12333 c-9 -10 -7 -43 3 -43 18 0 29 25 16 37 -7 6 -16 9 -19 6z"/>
<path d="M3095 12320 c-3 -5 1 -10 9 -10 9 0 16 5 16 10 0 6 -4 10 -9 10 -6 0
-13 -4 -16 -10z"/>
<path d="M3314 12305 c-11 -17 -14 -35 -10 -56 5 -27 3 -31 -13 -26 -17 4 -18
1 -9 -30 6 -23 6 -45 -2 -69 -7 -20 -8 -47 -4 -67 4 -17 7 -36 5 -42 -8 -28
-8 -61 1 -72 6 -7 5 -14 -2 -18 -5 -3 -10 -1 -10 4 0 6 -7 11 -15 11 -11 0
-15 -11 -15 -39 0 -46 -9 -73 -21 -65 -15 9 4 -30 23 -47 10 -9 15 -19 11 -23
-3 -3 1 -6 10 -6 22 0 22 16 0 29 -12 7 -13 11 -5 11 9 0 12 8 8 28 -3 15 -2
34 4 42 7 11 10 7 10 -17 0 -30 3 -33 30 -33 28 0 30 2 30 39 0 22 -5 41 -11
43 -9 3 -9 9 -1 25 7 11 10 54 9 97 -2 43 1 80 6 83 4 3 1 10 -8 17 -15 11
-15 14 -2 24 15 13 15 43 -3 109 -7 28 -6 31 11 28 10 -2 19 0 19 6 0 5 -5 9
-12 9 -9 0 -9 3 0 12 10 10 15 10 23 -2 9 -13 10 -13 6 0 -7 26 -44 24 -63 -5z"/>
<path d="M3696 12281 c-3 -22 -3 -47 0 -55 3 -9 1 -16 -5 -16 -7 0 -11 -6 -10
-12 8 -68 -15 -120 -27 -60 -4 19 -12 28 -25 28 -10 0 -19 -4 -19 -8 0 -4 4
-8 10 -8 6 0 8 -52 6 -137 -4 -111 -2 -139 11 -151 19 -19 35 -4 37 36 1 17 5
34 9 38 11 11 8 44 -4 44 -6 0 -1 9 12 21 13 11 19 18 13 15 -6 -3 -16 6 -22
19 -10 21 -9 25 3 25 8 0 15 -5 15 -11 0 -5 5 -7 10 -4 6 4 10 -10 10 -34 0
-22 4 -42 10 -46 13 -8 1 -35 -16 -35 -8 0 -14 -4 -14 -10 0 -14 12 -12 35 8
31 25 36 47 15 62 -14 10 -16 17 -6 42 8 21 8 31 0 36 -7 4 -10 44 -9 107 2
98 -6 145 -23 145 -5 0 -12 -18 -16 -39z m-23 -213 c-4 -7 -6 -20 -5 -30 2 -9
-1 -19 -7 -22 -8 -6 -9 11 -2 57 0 4 6 7 12 7 6 0 7 -5 2 -12z"/>
<path d="M3440 12290 c0 -5 5 -10 11 -10 5 0 7 5 4 10 -3 6 -8 10 -11 10 -2 0
-4 -4 -4 -10z"/>
<path d="M3076 12264 c-4 -14 -4 -34 -1 -44 3 -11 0 -22 -8 -27 -13 -8 -31
-43 -22 -43 12 0 51 26 63 42 7 9 19 23 27 31 17 17 10 28 -13 20 -14 -4 -14
-3 -3 5 12 9 12 12 0 24 -23 21 -37 19 -43 -8z m15 -77 c-10 -9 -11 -8 -5 6 3
10 9 15 12 12 3 -3 0 -11 -7 -18z"/>
<path d="M3532 12238 c-16 -55 -14 -86 8 -98 21 -11 19 -14 35 63 6 31 -5 67
-20 67 -8 0 -18 -15 -23 -32z"/>
<path d="M3382 12213 c1 -10 -1 -24 -5 -30 -5 -7 -5 -13 -1 -13 3 0 -4 -8 -16
-18 l-21 -17 23 -22 c21 -20 44 -27 76 -24 15 1 16 31 1 31 -5 0 -7 5 -4 10 3
6 1 10 -4 10 -15 0 -14 -27 2 -33 6 -3 0 -6 -14 -6 -35 -1 -41 7 -24 33 8 12
11 27 6 34 -4 7 -6 24 -3 38 2 14 0 24 -7 24 -7 0 -11 -8 -9 -17z"/>
<path d="M2969 12164 c-12 -14 -11 -16 5 -13 11 2 21 10 24 17 5 17 -13 15
-29 -4z"/>
<path d="M3217 12145 c-9 -22 8 -26 21 -4 10 15 10 19 -2 19 -8 0 -16 -7 -19
-15z"/>
<path d="M3169 12136 c0 -6 -2 -25 -3 -43 -4 -38 24 -72 42 -51 7 9 6 17 -5
27 -13 12 -14 11 -8 -10 7 -22 6 -23 -10 -8 -15 15 -15 19 -1 54 19 45 19 42
1 42 -8 0 -15 -5 -16 -11z"/>
<path d="M3490 12129 c0 -24 23 -21 28 4 2 10 -3 17 -12 17 -10 0 -16 -9 -16
-21z"/>
<path d="M2960 12114 c0 -29 15 -31 29 -5 9 15 7 20 -9 24 -16 4 -20 0 -20
-19z"/>
<path d="M2540 12121 c0 -6 4 -12 10 -16 5 -3 6 -13 3 -22 -6 -15 -5 -16 9 -3
9 8 12 17 7 18 -5 2 -9 10 -9 18 0 8 -4 14 -10 14 -5 0 -10 -4 -10 -9z"/>
<path d="M2857 12093 c-3 -5 -1 -17 3 -27 7 -20 12 -16 23 17 6 17 -17 26 -26
10z"/>
<path d="M3018 11970 c-2 -73 0 -134 5 -137 4 -2 7 -14 7 -26 1 -30 38 -73 51
-60 8 8 8 17 0 31 -6 10 -7 22 -3 26 3 4 2 10 -4 14 -6 4 -18 21 -27 38 -15
29 -15 35 0 64 10 20 12 35 6 39 -16 10 -25 51 -15 64 19 22 19 71 0 75 -15 3
-17 -11 -20 -128z"/>
<path d="M3211 12084 c0 -11 3 -14 6 -6 3 7 2 16 -1 19 -3 4 -6 -2 -5 -13z"/>
<path d="M2803 12068 c-6 -13 -14 -31 -17 -40 -3 -10 -12 -18 -19 -18 -14 0
-45 -77 -38 -95 2 -5 3 -41 2 -80 -1 -38 1 -66 5 -62 4 4 7 24 6 45 -2 45 13
75 27 52 5 -8 7 -18 5 -22 -13 -20 9 -28 23 -8 11 16 12 24 3 35 -7 9 -8 15 0
20 5 3 10 37 10 75 0 38 4 80 10 94 12 32 -3 35 -17 4z m-23 -72 c0 -3 -4 -8
-10 -11 -5 -3 -10 -1 -10 4 0 6 5 11 10 11 6 0 10 -2 10 -4z"/>
<path d="M3485 12082 c-11 -7 -21 -82 -11 -82 7 0 36 61 36 77 0 14 -10 17
-25 5z"/>
<path d="M3535 12080 c-4 -6 -3 -16 3 -22 6 -6 12 -6 17 2 4 6 3 16 -3 22 -6
6 -12 6 -17 -2z"/>
<path d="M3450 12062 c0 -6 -6 -9 -14 -6 -10 4 -16 -7 -22 -38 -4 -24 -7 -47
-6 -51 1 -4 -5 -10 -13 -13 -21 -8 -19 -21 5 -27 23 -6 18 -33 -9 -54 -13 -10
-14 -14 -3 -21 11 -7 8 -11 -8 -15 -13 -3 -19 -10 -15 -17 4 -6 16 -8 27 -4
16 5 20 3 15 -9 -8 -21 16 -40 31 -25 7 7 12 17 12 23 0 7 9 22 20 35 27 31
25 41 -5 36 -28 -5 -26 -10 -29 94 -1 48 3 68 14 77 8 6 12 15 7 19 -4 4 -7 2
-7 -4z"/>
<path d="M2556 12043 c-6 -14 -5 -15 5 -6 7 7 10 15 7 18 -3 3 -9 -2 -12 -12z"/>
<path d="M3077 12043 c-4 -3 -7 -11 -7 -17 0 -6 5 -5 12 2 6 6 9 14 7 17 -3 3
-9 2 -12 -2z"/>
<path d="M3150 12005 c-6 -106 -4 -135 7 -146 9 -9 16 -9 28 1 10 8 15 9 15 1
0 -6 5 -11 12 -11 9 0 9 3 0 12 -16 16 -15 28 3 28 16 0 21 26 6 32 -6 2 -12
17 -15 33 -2 17 -5 32 -6 35 -1 3 -1 10 0 15 1 6 -1 7 -5 3 -8 -8 -29 10 -37
32 -3 8 -7 -7 -8 -35z"/>
<path d="M2634 12032 c-6 -4 -13 -20 -16 -35 -4 -21 -2 -27 10 -25 10 2 15 15
16 36 1 17 1 32 1 32 0 0 -5 -4 -11 -8z"/>
<path d="M3360 12026 c0 -9 5 -16 10 -16 6 0 10 4 10 9 0 6 -4 13 -10 16 -5 3
-10 -1 -10 -9z"/>
<path d="M2927 12014 c-13 -14 -7 -32 14 -37 16 -4 20 -1 17 15 -3 22 -19 33
-31 22z"/>
<path d="M3940 11976 c0 -9 5 -16 10 -16 6 0 10 4 10 9 0 6 -4 13 -10 16 -5 3
-10 -1 -10 -9z"/>
<path d="M2486 11971 c-4 -7 -5 -15 -2 -18 9 -9 19 4 14 18 -4 11 -6 11 -12 0z"/>
<path d="M2921 11954 c0 -11 3 -14 6 -6 3 7 2 16 -1 19 -3 4 -6 -2 -5 -13z"/>
<path d="M3464 11962 c-15 -9 -19 -42 -9 -64 11 -28 23 -12 23 32 0 22 0 40
-1 40 -1 0 -7 -4 -13 -8z"/>
<path d="M2882 11918 c-2 -30 1 -39 7 -28 5 8 8 17 5 21 -2 4 2 9 8 12 10 3 9
9 -3 21 -14 15 -15 13 -17 -26z"/>
<path d="M2500 11929 c0 -5 5 -7 10 -4 6 3 10 8 10 11 0 2 -4 4 -10 4 -5 0
-10 -5 -10 -11z"/>
<path d="M3942 11905 c0 -16 2 -22 5 -12 2 9 2 23 0 30 -3 6 -5 -1 -5 -18z"/>
<path d="M2520 11903 c0 -12 5 -25 11 -28 19 -12 22 3 5 27 l-16 22 0 -21z"/>
<path d="M3735 11910 c-8 -13 3 -30 18 -30 7 0 13 9 14 20 2 21 -21 28 -32 10z"/>
<path d="M8489 11900 c-1 -8 -1 -18 0 -22 0 -5 -7 -8 -16 -8 -22 0 -103 -70
-103 -87 0 -18 19 -16 26 2 4 8 10 12 15 9 17 -10 9 -41 -18 -70 -26 -28 -26
-28 -20 -5 3 13 2 33 -4 43 -10 19 -39 25 -39 8 0 -5 4 -10 10 -10 5 0 14 -19
20 -42 6 -24 15 -51 21 -62 8 -13 7 -22 0 -29 -15 -15 -14 -27 4 -27 8 0 15
-3 15 -7 5 -94 3 -136 -7 -145 -7 -6 -13 -18 -13 -28 0 -16 57 -168 67 -180
11 -12 31 34 26 58 -3 15 -6 34 -8 42 -1 8 -8 35 -14 60 -7 25 -11 63 -7 86 3
23 1 56 -4 75 -7 22 -6 37 1 46 6 7 9 24 7 38 -3 14 -1 28 4 31 5 3 4 12 -3
20 -6 8 -7 14 -2 14 5 0 15 11 21 25 15 33 15 35 -3 35 -21 0 -19 13 5 35 17
16 21 16 35 2 19 -20 19 -27 0 -27 -9 0 -15 -9 -15 -21 0 -12 5 -19 13 -16 6
2 11 10 10 16 -2 6 2 11 8 11 6 0 8 -9 4 -20 -5 -15 -3 -18 9 -14 11 4 13 0 9
-15 -7 -26 -18 -27 -28 -3 -6 13 -10 8 -17 -22 -5 -24 -5 -43 2 -51 5 -6 7
-15 3 -18 -3 -4 -1 -7 6 -7 6 0 11 6 10 13 -5 42 2 58 23 55 16 -2 26 -14 34
-43 9 -32 13 -36 19 -22 5 12 1 28 -12 45 -15 20 -18 33 -12 50 9 24 -2 65
-16 60 -5 -2 -10 20 -11 47 -2 75 -3 78 -18 72 -7 -3 -19 0 -25 6 -8 8 -11 7
-12 -3z m21 -60 c0 -5 -8 -10 -17 -10 -15 0 -16 2 -3 10 19 12 20 12 20 0z"/>
<path d="M8825 11889 c-4 -6 2 -17 14 -25 12 -8 21 -22 21 -30 0 -8 7 -17 16
-21 13 -5 13 -7 2 -14 -9 -6 -4 -9 15 -9 15 0 27 3 27 6 0 3 -15 27 -32 55
-32 48 -50 59 -63 38z"/>
<path d="M2910 11880 c0 -6 5 -21 11 -32 9 -17 8 -24 -3 -32 -13 -10 -13 -13
1 -28 15 -15 16 -13 18 29 1 29 -4 51 -13 60 -9 9 -14 10 -14 3z"/>
<path d="M4057 11883 c-7 -11 4 -63 13 -63 9 0 8 56 -2 65 -3 3 -8 3 -11 -2z"/>
<path d="M2498 11866 c-38 -41 -49 -59 -43 -77 4 -11 1 -26 -5 -34 -17 -20
-19 -145 -2 -145 7 0 12 6 11 13 -1 6 0 19 4 27 15 40 14 59 -2 64 -9 3 -5 4
9 3 25 -2 25 -3 22 -75 -2 -46 3 -94 13 -128 21 -72 39 -71 33 1 -3 31 -1 55
5 55 5 0 6 11 3 25 -4 14 0 39 7 57 8 18 15 38 16 43 2 6 8 16 14 23 8 11 7
16 -6 23 -9 5 -14 16 -11 24 4 8 1 15 -5 15 -6 0 -11 -4 -11 -10 0 -5 -7 -10
-15 -10 -16 0 -21 35 -7 44 10 6 3 64 -8 71 -5 3 -14 -1 -22 -9z m2 -76 c0 -5
-5 -10 -11 -10 -5 0 -7 5 -4 10 3 6 8 10 11 10 2 0 4 -4 4 -10z"/>
<path d="M3706 11855 c-3 -8 -1 -17 3 -20 5 -3 11 2 15 10 3 8 1 17 -3 20 -5
3 -11 -2 -15 -10z"/>
<path d="M3744 11856 c-4 -9 -4 -20 0 -23 3 -4 6 2 6 12 0 18 1 18 15 -1 8
-10 15 -14 15 -8 0 6 -7 17 -15 24 -12 10 -16 9 -21 -4z"/>
<path d="M3946 11861 c-4 -7 -5 -15 -2 -18 9 -9 19 4 14 18 -4 11 -6 11 -12 0z"/>
<path d="M2681 11844 c0 -11 3 -14 6 -6 3 7 2 16 -1 19 -3 4 -6 -2 -5 -13z"/>
<path d="M2870 11844 c0 -8 5 -12 10 -9 6 4 8 11 5 16 -9 14 -15 11 -15 -7z"/>
<path d="M3555 11841 c-11 -19 5 -51 26 -51 24 0 24 15 0 41 -12 13 -21 17
-26 10z"/>
<path d="M8764 11835 c3 -21 16 -31 16 -12 0 9 -4 18 -9 21 -5 4 -8 -1 -7 -9z"/>
<path d="M2630 11825 c0 -21 17 -45 33 -45 4 0 6 4 2 9 -3 5 3 12 12 14 16 4
16 5 -1 6 -10 0 -25 9 -32 19 -13 16 -13 16 -14 -3z"/>
<path d="M3853 11821 c-11 -17 -10 -84 2 -151 3 -14 8 -44 11 -67 7 -46 33
-65 59 -43 12 10 17 7 27 -14 8 -19 18 -26 32 -24 21 3 25 26 14 73 -3 11 -9
39 -13 62 -6 33 -11 40 -24 35 -13 -5 -14 -3 -4 9 6 8 10 34 8 59 -3 60 -3 60
-15 60 -5 0 -10 -16 -10 -35 0 -26 -4 -35 -14 -33 -8 2 -14 -1 -13 -7 1 -5 8
-9 15 -9 16 2 15 -6 -3 -20 -13 -10 -13 -17 0 -66 8 -30 15 -56 15 -57 0 -2
-6 -3 -13 -3 -16 0 -47 82 -40 108 2 10 -5 34 -16 53 -23 37 -27 54 -11 44 6
-4 10 5 10 19 0 31 -2 32 -17 7z"/>
<path d="M8313 11810 c-13 -34 -13 -33 22 -20 22 9 24 12 13 30 -17 27 -22 25
-35 -10z"/>
<path d="M3750 11800 c0 -13 5 -18 14 -14 8 3 12 12 9 20 -8 21 -23 17 -23 -6z"/>
<path d="M3645 11800 c3 -5 8 -10 11 -10 2 0 4 5 4 10 0 6 -5 10 -11 10 -5 0
-7 -4 -4 -10z"/>
<path d="M4075 11790 c3 -5 1 -19 -6 -31 -9 -17 -8 -25 5 -37 8 -9 19 -12 23
-8 4 4 2 10 -4 14 -8 5 -9 13 -3 22 15 23 12 50 -6 50 -8 0 -12 -4 -9 -10z"/>
<path d="M8650 11787 c0 -7 4 -17 9 -22 5 -6 11 -18 13 -27 2 -13 7 -15 18 -8
12 8 12 11 -3 28 -9 10 -17 24 -17 30 0 7 -4 12 -10 12 -5 0 -10 -6 -10 -13z"/>
<path d="M8924 11779 c-3 -6 -1 -16 5 -22 8 -8 11 -5 11 11 0 24 -5 28 -16 11z"/>
<path d="M9090 11772 c0 -19 26 -62 38 -62 7 0 18 -13 23 -30 12 -33 29 -40
29 -13 0 17 -46 91 -65 105 -13 10 -25 10 -25 0z"/>
<path d="M8810 11750 c-9 -6 -10 -10 -3 -10 6 0 15 5 18 10 8 12 4 12 -15 0z"/>
<path d="M9169 11759 c-6 -31 -6 -38 2 -33 5 3 9 0 9 -6 0 -20 45 -6 47 15 2
11 0 14 -3 8 -4 -9 -11 -9 -30 3 -13 9 -24 15 -25 13z"/>
<path d="M8950 11729 c0 -11 4 -18 10 -14 5 3 7 12 3 20 -7 21 -13 19 -13 -6z"/>
<path d="M9225 11701 c-19 -8 -19 -8 0 -18 11 -6 25 -8 32 -6 7 2 15 -7 19
-22 3 -14 14 -31 24 -38 9 -6 20 -22 24 -35 9 -27 54 -78 62 -69 10 10 -87
166 -107 172 -11 4 -19 11 -19 16 0 11 -7 11 -35 0z"/>
<path d="M3771 11684 c0 -11 3 -14 6 -6 3 7 2 16 -1 19 -3 4 -6 -2 -5 -13z"/>
<path d="M8237 11670 c4 -16 2 -19 -11 -14 -12 5 -15 2 -10 -10 3 -9 10 -14
14 -11 5 3 7 -16 4 -42 -2 -27 -6 -66 -8 -88 -3 -22 -9 -71 -15 -110 -15 -104
-14 -220 3 -234 20 -16 26 -1 21 47 -2 23 0 44 5 47 6 4 10 0 10 -8 0 -14 32
-57 43 -57 11 0 -6 65 -19 73 -9 5 -12 37 -9 125 4 120 12 203 20 211 3 2 0
10 -5 16 -8 9 -6 14 5 19 14 5 14 8 -2 31 -22 30 -53 34 -46 5z"/>
<path d="M8700 11675 c0 -8 2 -15 4 -15 2 0 6 7 10 15 3 8 1 15 -4 15 -6 0
-10 -7 -10 -15z"/>
<path d="M4066 11670 c7 -7 8 -26 4 -49 -4 -25 -2 -47 6 -62 l13 -24 1 28 c0
16 4 26 10 22 14 -9 13 8 -2 23 -9 9 -9 12 3 12 8 0 10 3 4 8 -5 4 -10 16 -10
27 0 12 -8 21 -20 23 -15 3 -17 1 -9 -8z"/>
<path d="M3784 11640 c0 -13 4 -16 10 -10 7 7 7 13 0 20 -6 6 -10 3 -10 -10z"/>
<path d="M8050 11651 c0 -5 9 -7 20 -4 11 3 20 7 20 9 0 2 -9 4 -20 4 -11 0
-20 -4 -20 -9z"/>
<path d="M9030 11656 c0 -15 38 -57 44 -48 3 5 -6 20 -19 32 -14 13 -25 20
-25 16z"/>
<path d="M8008 11603 c7 -3 16 -2 19 1 4 3 -2 6 -13 5 -11 0 -14 -3 -6 -6z"/>
<path d="M9222 11573 c5 -26 38 -29 38 -4 0 15 -6 21 -21 21 -14 0 -19 -5 -17
-17z"/>
<path d="M8504 11530 c4 -57 12 -72 27 -50 9 14 4 74 -7 92 -14 22 -23 2 -20
-42z"/>
<path d="M8089 11568 c-1 -5 -2 -11 -3 -15 -1 -5 -4 -12 -7 -18 -4 -5 -10 -30
-14 -53 -6 -39 -5 -43 11 -40 11 2 18 10 16 17 -1 7 2 28 8 47 8 23 8 39 1 51
-6 10 -11 15 -12 11z"/>
<path d="M8676 11561 c-4 -7 -5 -15 -2 -18 9 -9 19 4 14 18 -4 11 -6 11 -12 0z"/>
<path d="M8730 11551 c0 -12 7 -24 15 -27 8 -4 12 -10 9 -15 -3 -5 2 -19 10
-31 20 -28 21 -8 2 47 -15 44 -36 58 -36 26z"/>
<path d="M8331 11544 c0 -11 3 -14 6 -6 3 7 2 16 -1 19 -3 4 -6 -2 -5 -13z"/>
<path d="M8600 11540 c0 -11 6 -20 14 -20 9 0 12 7 9 20 -3 11 -9 20 -14 20
-5 0 -9 -9 -9 -20z"/>
<path d="M9490 11545 c0 -10 14 -33 30 -52 17 -18 30 -40 30 -48 0 -8 4 -15 9
-15 5 0 17 -27 27 -60 18 -56 37 -76 47 -47 3 7 12 2 26 -15 13 -16 28 -28 34
-27 9 0 9 2 0 5 -7 3 -10 11 -7 18 5 14 -105 183 -120 184 -5 0 -14 11 -20 23
-6 12 -21 29 -33 37 -21 13 -23 13 -23 -3z"/>
<path d="M9260 11540 c-9 -6 -10 -10 -3 -10 6 0 15 5 18 10 8 12 4 12 -15 0z"/>
<path d="M4030 11526 c0 -9 5 -16 10 -16 6 0 10 4 10 9 0 6 -4 13 -10 16 -5 3
-10 -1 -10 -9z"/>
<path d="M7956 11531 c-4 -5 -2 -12 3 -15 5 -4 12 -2 15 3 4 5 2 12 -3 15 -5
4 -12 2 -15 -3z"/>
<path d="M4071 11504 c0 -11 3 -14 6 -6 3 7 2 16 -1 19 -3 4 -6 -2 -5 -13z"/>
<path d="M9270 11502 c0 -27 25 -56 43 -49 10 4 17 -1 20 -14 3 -12 0 -19 -8
-19 -11 0 -11 -5 1 -27 7 -16 14 -33 14 -39 0 -6 8 -18 17 -25 15 -12 16 -12
11 6 -3 11 -9 29 -14 40 -8 20 -7 20 11 1 10 -10 20 -26 21 -35 1 -9 7 -30 12
-48 6 -17 8 -34 5 -37 -3 -3 -1 -11 5 -18 6 -7 11 -17 13 -23 4 -18 30 -53 43
-58 7 -3 13 4 13 15 2 27 11 34 25 20 19 -19 30 -14 22 11 -4 12 -7 30 -6 39
0 10 -3 20 -8 23 -5 3 -6 13 -3 21 4 10 -2 17 -16 21 -12 3 -21 13 -21 24 0
35 -25 99 -38 99 -14 0 -9 -31 15 -87 7 -18 10 -33 7 -33 -4 0 0 -8 9 -18 20
-21 34 -82 20 -82 -5 0 -14 10 -20 23 -49 107 -99 203 -110 210 -7 4 -10 14
-7 22 6 13 -6 20 -28 16 -5 0 -8 3 -8 9 0 5 -9 14 -20 20 -17 9 -20 8 -20 -8z"/>
<path d="M3972 11490 c0 -14 2 -19 5 -12 2 6 2 18 0 25 -3 6 -5 1 -5 -13z"/>
<path d="M8617 11490 c3 -11 9 -20 15 -20 5 0 4 9 -2 20 -6 11 -12 20 -14 20
-2 0 -2 -9 1 -20z"/>
<path d="M7900 11478 c-23 -25 -23 -27 -11 -47 12 -19 41 -6 41 18 0 11 3 26
6 35 9 23 -12 20 -36 -6z"/>
<path d="M8686 11485 c3 -11 6 -28 6 -37 0 -10 3 -18 9 -18 14 0 11 34 -7 56
-15 19 -16 19 -8 -1z"/>
<path d="M9404 11469 c-3 -6 -1 -16 5 -22 8 -8 11 -5 11 11 0 24 -5 28 -16 11z"/>
<path d="M8139 11423 c-1 -16 -1 -34 0 -40 1 -7 -3 -13 -9 -13 -5 0 -10 -7
-10 -17 0 -15 2 -15 19 1 11 10 17 25 14 35 -3 11 0 22 6 25 11 7 4 36 -10 36
-5 0 -10 -12 -10 -27z"/>
<path d="M4047 11414 c-4 -4 -7 -14 -7 -23 0 -11 3 -12 11 -4 6 6 10 16 7 23
-2 6 -7 8 -11 4z"/>
<path d="M8060 11395 c0 -36 -1 -39 -12 -52 -9 -12 -3 -226 8 -265 3 -9 0 -19
-6 -23 -5 -3 -10 2 -10 14 0 27 -10 51 -22 51 -7 0 -7 -4 -1 -12 6 -7 10 -20
11 -28 0 -33 30 -124 41 -126 7 -2 8 -1 1 3 -7 3 -4 10 8 18 13 10 18 23 16
49 -3 35 11 51 18 21 6 -27 25 0 31 43 3 27 1 47 -7 54 -6 6 -10 26 -8 45 2
18 -1 40 -8 48 -6 8 -9 23 -5 36 5 16 4 20 -6 15 -8 -4 -6 -1 4 7 17 15 23 37
9 37 -4 0 -13 20 -20 45 -13 50 -42 63 -42 20z m50 -312 c0 -29 -26 -11 -28
20 -2 30 -1 31 13 13 8 -11 15 -26 15 -33z"/>
<path d="M3470 11380 c-18 -6 -20 -8 -7 -9 17 -1 17 -2 -1 -28 l-20 -28 33 -2
c26 -2 34 1 38 19 4 12 2 27 -4 34 -7 8 -6 14 3 17 21 9 -14 6 -42 -3z"/>
<path d="M7957 11383 c-11 -10 -8 -35 3 -28 6 3 10 2 10 -4 0 -5 -6 -12 -12
-15 -9 -3 -8 -8 5 -16 9 -6 17 -20 17 -30 0 -10 3 -21 8 -23 4 -3 5 24 4 59
-4 60 -15 78 -35 57z"/>
<path d="M3565 11350 c10 -11 20 -18 23 -15 7 6 -18 35 -31 35 -5 0 -2 -9 8
-20z"/>
<path d="M4037 11363 c-4 -6 0 -19 8 -29 11 -15 14 -16 15 -4 0 21 -16 44 -23
33z"/>
<path d="M3410 11338 c0 -9 5 -20 10 -23 13 -8 13 5 0 25 -8 13 -10 13 -10 -2z"/>
<path d="M2911 11327 c0 -10 -5 -15 -11 -12 -5 3 -10 1 -10 -4 0 -6 -9 -11
-20 -11 -11 0 -20 -4 -20 -9 0 -9 58 -6 67 3 3 2 3 15 0 28 -3 15 -5 17 -6 5z"/>
<path d="M9526 11322 c-4 -7 -2 -31 4 -54 10 -35 14 -39 21 -25 6 9 7 22 4 27
-3 6 -2 10 3 10 5 0 15 -15 23 -32 17 -43 16 -43 36 -27 18 15 18 14 -4 -38
-3 -7 0 -13 7 -13 6 0 9 -4 5 -9 -8 -14 15 -25 26 -14 6 6 4 14 -5 22 -12 10
-13 18 -5 33 9 16 13 17 26 7 13 -11 14 -10 11 11 -2 21 -8 25 -35 24 -18 0
-30 4 -26 9 3 5 14 7 24 4 20 -5 25 9 10 31 -7 11 -11 11 -23 -1 -12 -12 -19
-13 -45 -2 -17 7 -35 21 -41 30 -6 12 -12 14 -16 7z"/>
<path d="M7781 11274 c-6 -14 -9 -30 -6 -34 3 -5 -2 -21 -11 -35 -19 -29 -18
-30 13 -39 18 -6 24 -2 29 18 3 14 9 25 13 24 23 -3 31 6 31 32 0 32 -8 37
-29 18 -11 -11 -13 -10 -8 5 4 9 2 17 -4 17 -6 0 -7 5 -4 10 3 6 2 10 -3 10
-5 0 -14 -12 -21 -26z"/>
<path d="M7935 11258 c-7 -19 -13 -137 -14 -268 -1 -78 -4 -110 -11 -100 -7
11 -10 12 -10 2 0 -8 -9 -12 -22 -10 -13 2 -22 9 -20 17 2 8 -3 18 -10 22 -10
7 -10 11 0 21 8 8 12 8 12 1 0 -6 7 -13 15 -17 9 -3 15 0 15 9 0 8 -6 15 -13
15 -7 0 -22 7 -33 15 -18 14 -18 14 4 8 17 -4 22 -1 22 13 0 14 2 16 9 6 10
-17 8 41 -3 80 -10 34 -25 28 -18 -7 6 -32 -11 -32 -26 0 -6 14 -8 25 -3 25
11 0 2 38 -11 46 -6 4 -14 0 -19 -7 -7 -11 -11 -10 -23 6 -15 20 -15 20 -35 0
-28 -28 -38 -75 -17 -75 19 0 22 -16 4 -22 -11 -4 -16 -40 -17 -138 0 -19 4
-50 11 -69 9 -29 12 -31 20 -17 5 9 7 22 5 29 -2 7 0 21 6 32 10 18 12 17 20
-15 5 -19 11 -51 14 -70 3 -19 10 -40 15 -47 5 -7 7 -17 3 -22 -8 -14 15 -91
28 -91 5 0 7 -7 3 -15 -3 -8 -1 -15 4 -15 6 0 10 -8 10 -18 0 -10 3 -22 7 -26
12 -12 12 -40 0 -48 -17 -11 4 -42 32 -46 11 -2 21 -8 21 -13 0 -6 -4 -7 -10
-4 -5 3 -10 1 -10 -5 0 -7 9 -14 20 -17 11 -3 20 -12 20 -20 0 -19 25 -11 25
8 0 8 4 19 8 25 10 17 -11 72 -51 131 -24 36 -32 57 -27 70 5 12 9 14 12 6 3
-7 11 -13 19 -13 9 0 13 4 9 9 -3 5 -1 12 5 16 5 3 19 -10 31 -29 24 -40 45
-48 35 -13 -4 12 -9 31 -13 42 -8 29 -8 56 0 88 5 18 4 26 -2 23 -5 -4 -10 2
-9 11 0 10 -4 47 -10 83 -5 35 -7 79 -5 98 4 26 2 32 -8 27 -9 -6 -11 1 -6 30
4 24 2 44 -5 53 -10 11 -9 17 2 26 10 7 14 26 13 56 -2 25 -3 62 -3 83 0 37
-7 48 -15 25z m-141 -163 c3 -8 1 -15 -4 -15 -6 0 -10 7 -10 15 0 8 2 15 4 15
2 0 6 -7 10 -15z m16 -92 c0 -18 6 -47 14 -65 12 -27 46 -160 46 -178 0 -3 -9
-6 -20 -6 -22 0 -50 63 -33 75 17 11 12 51 -8 64 -10 6 -19 17 -19 22 0 17
-24 65 -32 65 -14 0 -8 31 7 36 8 3 17 15 21 26 9 28 24 4 24 -39z m92 -171
c-7 -5 -10 -17 -6 -28 5 -16 4 -16 -5 -4 -16 22 -13 40 7 40 12 0 14 -2 4 -8z
m22 -99 c9 -26 16 -48 16 -49 0 -1 -9 0 -20 3 -17 4 -18 8 -8 20 8 10 8 17 1
21 -13 9 -24 52 -13 52 4 0 15 -21 24 -47z"/>
<path d="M9550 11210 c0 -5 5 -10 11 -10 5 0 7 5 4 10 -3 6 -8 10 -11 10 -2 0
-4 -4 -4 -10z"/>
<path d="M9571 11154 c0 -11 3 -14 6 -6 3 7 2 16 -1 19 -3 4 -6 -2 -5 -13z"/>
<path d="M8290 11130 c0 -11 2 -20 4 -20 2 0 6 9 9 20 3 11 1 20 -4 20 -5 0
-9 -9 -9 -20z"/>
<path d="M8077 10920 c3 -11 7 -20 9 -20 2 0 4 9 4 20 0 11 -4 20 -9 20 -5 0
-7 -9 -4 -20z"/>
<path d="M9006 10909 c-21 -16 -24 -24 -16 -34 6 -8 18 -11 26 -8 8 3 14 0 14
-6 0 -17 50 -13 56 4 4 8 10 12 15 9 5 -3 9 3 9 14 0 18 -36 42 -64 42 -7 0
-25 -9 -40 -21z m67 -26 c-7 -18 -18 -16 -34 4 -8 9 -9 14 -3 10 7 -4 15 1 18
10 6 14 9 15 16 4 4 -8 6 -20 3 -28z"/>
<path d="M8520 10713 c8 -3 19 -11 23 -17 6 -7 7 -6 4 4 -2 8 -12 16 -23 17
-13 2 -15 1 -4 -4z"/>
<path d="M8473 10698 c-4 -7 -6 -21 -4 -32 1 -10 -1 -16 -6 -13 -4 3 -14 -1
-20 -8 -10 -11 -8 -14 10 -17 12 -2 34 1 50 6 21 8 27 17 27 38 0 15 -4 28
-10 28 -5 0 -10 -9 -10 -21 0 -12 -5 -19 -12 -16 -7 2 -13 14 -12 26 1 24 -2
26 -13 9z"/>
<path d="M7780 10631 c0 -11 4 -21 9 -21 18 0 21 18 6 30 -13 10 -15 9 -15 -9z"/>
<path d="M8337 10603 c-11 -13 -17 -26 -14 -29 2 -3 12 7 21 22 23 33 17 39
-7 7z"/>
<path d="M7807 10580 c8 -29 25 -37 21 -9 -1 12 -8 24 -15 26 -7 3 -9 -3 -6
-17z"/>
<path d="M8380 9753 c-8 -2 -32 -27 -53 -55 -29 -38 -37 -56 -33 -74 8 -31 22
-30 52 4 13 15 42 46 64 70 22 23 40 47 40 52 0 10 -42 12 -70 3z"/>
<path d="M3733 9303 c-26 -10 -12 -22 23 -20 25 1 38 -3 42 -13 3 -12 2 -12
-8 -3 -9 8 -21 8 -40 1 -22 -7 -27 -14 -24 -31 17 -74 17 -97 0 -97 -10 0 -24
-7 -33 -16 -11 -11 -19 -12 -26 -5 -16 16 -30 13 -24 -4 4 -8 2 -17 -3 -20 -6
-4 -10 -20 -10 -37 0 -26 2 -29 15 -18 12 10 15 10 15 0 0 -9 5 -8 18 3 10 10
24 17 31 17 8 0 11 6 7 16 -4 11 -1 14 13 9 23 -7 106 28 114 48 4 10 -2 17
-16 22 -22 6 -22 6 -2 15 30 13 45 12 45 -5 0 -8 7 -15 16 -15 9 0 18 -9 21
-20 4 -15 14 -20 39 -20 35 0 46 16 19 26 -8 4 -15 12 -15 19 0 14 -74 84 -90
86 -6 1 -14 3 -20 4 -5 1 -14 3 -20 4 -5 0 -10 8 -10 17 0 30 -44 51 -77 37z
m50 -140 c3 -31 0 -43 -10 -47 -22 -9 -33 -7 -33 5 0 5 3 8 8 6 14 -9 28 18
21 43 -4 14 -7 19 -8 11 -1 -8 -4 -12 -7 -8 -3 3 -3 15 1 27 10 30 22 13 28
-37z m-96 -69 c-3 -3 -12 -4 -19 -1 -8 3 -5 6 6 6 11 1 17 -2 13 -5z"/>
<path d="M3530 9275 c0 -13 -4 -27 -10 -30 -5 -3 -10 -20 -10 -36 0 -17 -4
-28 -10 -24 -6 3 -7 -1 -4 -10 5 -12 9 -13 20 -4 8 6 14 17 14 23 0 22 45 56
68 51 25 -4 39 12 23 28 -8 8 -14 8 -23 -1 -17 -17 -28 -15 -28 6 0 11 -8 18
-20 19 -15 1 -20 -4 -20 -22z"/>
<path d="M3650 9280 c0 -5 5 -10 10 -10 6 0 10 5 10 10 0 6 -4 10 -10 10 -5 0
-10 -4 -10 -10z"/>
<path d="M8705 9177 c-9 -14 -14 -31 -10 -37 4 -6 2 -17 -4 -24 -7 -8 -11 -18
-10 -22 1 -5 1 -28 0 -50 -1 -33 -5 -43 -21 -47 -33 -8 -25 -87 9 -87 25 0
101 52 93 64 -3 6 -6 25 -5 43 0 18 -3 33 -8 33 -5 0 -6 7 -3 15 5 11 10 12
26 4 25 -13 49 -4 42 16 -3 8 -1 15 4 15 6 0 14 -9 17 -20 3 -11 11 -20 16
-20 5 0 9 -5 9 -11 0 -6 -9 -9 -20 -6 -13 3 -20 0 -20 -9 0 -8 5 -14 10 -14
17 0 11 -18 -7 -23 -13 -3 -12 -5 5 -6 37 -2 102 46 102 75 0 15 -68 89 -81
89 -6 0 -17 9 -25 19 -13 19 -14 18 -14 -15 l-1 -34 -24 30 c-16 19 -25 24
-25 15 0 -10 -6 -7 -19 9 l-18 24 -18 -26z m65 -41 c0 -3 -4 -8 -10 -11 -5 -3
-10 -1 -10 4 0 6 5 11 10 11 6 0 10 -2 10 -4z"/>
<path d="M3470 9134 c-6 -14 -10 -33 -10 -43 0 -10 -3 -21 -7 -25 -11 -11 -9
-126 2 -123 5 2 12 14 15 27 3 13 12 26 19 28 10 3 12 -2 8 -19 -4 -13 -7 -30
-7 -36 0 -7 -9 -13 -20 -13 -20 0 -25 -15 -14 -44 3 -9 12 -12 22 -8 14 5 15
3 5 -9 -9 -11 -8 -18 3 -33 12 -17 14 -18 14 -3 0 9 5 17 10 17 6 0 10 7 10
15 0 9 7 18 15 21 10 4 15 20 15 48 0 24 7 65 15 92 19 63 19 77 -3 104 l-18
23 -18 -37 c-14 -30 -20 -35 -31 -26 -9 8 -12 22 -8 41 7 36 -4 38 -17 3z m30
-102 c0 -13 -12 -22 -22 -16 -10 6 -1 24 13 24 5 0 9 -4 9 -8z"/>
<path d="M9917 9094 c-10 -61 13 -71 27 -13 4 17 1 31 -8 38 -11 9 -15 4 -19
-25z"/>
<path d="M3076 9071 c-3 -4 -17 -6 -31 -4 -13 3 -33 2 -42 -2 -15 -5 -12 -9
16 -21 18 -8 41 -14 51 -14 9 0 25 -8 34 -19 15 -16 19 -37 25 -109 1 -7 5
-11 10 -8 14 9 2 96 -20 144 -18 41 -32 51 -43 33z"/>
<path d="M2925 9018 c3 -13 8 -31 9 -41 3 -21 34 -46 59 -47 9 0 17 -7 17 -15
0 -8 7 -15 15 -15 9 0 18 -13 22 -31 4 -23 12 -31 35 -36 15 -3 31 -10 34 -14
7 -12 54 -11 54 1 0 6 -6 10 -14 10 -20 0 -41 30 -38 54 1 12 -2 28 -8 36 -8
12 -13 13 -29 3 -15 -10 -22 -9 -31 2 -7 8 -19 15 -27 15 -17 0 -46 31 -68 73
-19 33 -40 37 -30 5z m45 -42 c0 -3 -4 -8 -10 -11 -5 -3 -10 -1 -10 4 0 6 5
11 10 11 6 0 10 -2 10 -4z"/>
<path d="M4007 9026 c-4 -10 -3 -25 2 -33 12 -23 23 0 13 28 -8 20 -9 20 -15
5z"/>
<path d="M3205 8956 c3 -9 8 -24 12 -33 3 -10 16 -47 29 -83 16 -46 24 -60 29
-48 4 11 -5 43 -24 83 -17 36 -31 69 -31 74 0 6 -4 13 -10 16 -5 3 -8 -1 -5
-9z"/>
<path d="M3711 8931 c-10 -6 -12 -20 -8 -46 8 -49 13 -53 39 -28 21 21 21 22
2 52 -14 21 -23 28 -33 22z"/>
<path d="M3850 8930 c0 -5 5 -10 11 -10 5 0 7 5 4 10 -3 6 -8 10 -11 10 -2 0
-4 -4 -4 -10z"/>
<path d="M4010 8930 c0 -5 5 -10 10 -10 6 0 10 -5 10 -11 0 -5 -4 -7 -10 -4
-5 3 -10 -3 -10 -14 0 -11 5 -23 10 -26 7 -4 6 -13 -1 -26 -13 -25 -5 -49 15
-49 20 0 31 37 16 55 -6 8 -9 18 -6 23 8 13 -13 72 -25 72 -5 0 -9 -4 -9 -10z"/>
<path d="M3906 8922 c-3 -6 -1 -14 5 -17 14 -9 20 -2 10 14 -6 8 -11 9 -15 3z"/>
<path d="M3776 8911 c-4 -7 -5 -15 -2 -18 9 -9 19 4 14 18 -4 11 -6 11 -12 0z"/>
<path d="M4134 8818 c12 -106 13 -134 4 -170 -9 -39 -32 -50 -55 -27 -6 6 -23
9 -39 7 -21 -2 -30 -9 -32 -25 -2 -17 2 -23 15 -23 17 -1 17 -1 1 -11 -24 -14
-23 -32 1 -24 13 4 23 0 30 -12 9 -16 12 -16 22 -3 8 11 9 5 6 -26 -4 -37 -3
-41 14 -37 11 3 19 13 19 22 0 14 2 14 10 1 7 -11 10 -1 10 34 0 37 3 47 14
43 8 -3 17 1 20 9 3 9 10 13 14 10 8 -5 9 194 1 224 -4 15 -46 60 -56 60 -3 0
-3 -24 1 -52z"/>
<path d="M2882 8827 c-34 -16 -27 -61 11 -65 24 -3 27 0 27 25 0 41 -11 52
-38 40z"/>
<path d="M3580 8804 c0 -32 17 -64 34 -64 7 0 21 -9 31 -20 10 -11 24 -20 32
-20 8 0 11 -4 8 -10 -3 -5 -2 -10 3 -10 5 0 19 -9 32 -20 33 -29 66 -35 85
-17 8 9 25 19 38 22 56 16 107 46 107 63 0 14 -2 15 -10 2 -7 -12 -14 -12 -44
-2 -20 7 -40 11 -45 8 -5 -4 -12 0 -14 6 -3 7 -6 3 -6 -10 -1 -26 -27 -40 -44
-23 -15 15 -54 14 -60 -1 -6 -13 -17 -2 -88 85 -36 43 -59 48 -59 11z"/>
<path d="M9617 8788 c3 -18 10 -37 14 -42 5 -6 9 -18 9 -28 0 -11 9 -37 21
-60 13 -26 17 -44 11 -50 -6 -6 -19 10 -36 46 -25 53 -37 62 -73 57 -7 -1 -13
3 -13 9 0 5 -5 10 -12 10 -6 0 -9 -3 -5 -6 3 -3 -6 -27 -19 -54 -25 -49 -28
-67 -18 -93 7 -20 41 -10 47 14 4 16 9 18 32 9 24 -9 26 -8 20 10 -3 11 -3 20
2 20 13 0 57 -50 44 -50 -6 0 -11 -4 -11 -10 0 -6 10 -6 27 1 21 8 30 6 48
-11 13 -12 25 -31 28 -43 3 -12 14 -46 25 -76 19 -52 20 -53 33 -33 8 12 19
22 25 22 20 0 37 27 23 36 -7 4 -15 2 -17 -4 -2 -7 -8 -12 -14 -12 -7 0 -7 4
0 13 8 9 4 23 -13 52 -39 66 -52 97 -66 160 -7 33 -21 74 -30 92 -10 17 -15
34 -11 38 4 4 3 6 -3 5 -5 -1 -12 -1 -15 0 -3 1 -17 4 -32 6 -26 4 -27 3 -21
-28z"/>
<path d="M3029 8767 c-14 -30 -5 -77 15 -77 27 0 34 53 11 84 -14 18 -15 18
-26 -7z"/>
<path d="M3276 8772 c-2 -4 -1 -14 5 -22 7 -12 9 -10 9 8 0 23 -5 28 -14 14z"/>
<path d="M3980 8758 c0 -9 -6 -18 -12 -21 -7 -2 -10 -7 -7 -11 3 -3 14 1 25 8
15 12 17 17 7 27 -11 11 -13 10 -13 -3z"/>
<path d="M2770 8693 c0 -21 9 -52 19 -69 18 -30 87 -74 115 -74 8 0 16 -6 19
-12 3 -10 9 -10 26 0 19 11 26 10 51 -8 17 -12 34 -18 40 -15 5 3 10 0 11 -7
0 -7 5 -3 11 10 9 19 8 26 -10 42 -17 16 -26 18 -47 10 -33 -13 -48 -13 -40 0
4 6 -7 11 -24 11 -58 3 -60 5 -113 84 -23 36 -46 65 -50 65 -4 0 -8 -17 -8
-37z"/>
<path d="M9976 8694 c-7 -19 22 -66 36 -58 6 4 14 0 19 -7 6 -10 11 -11 19 -3
13 13 -5 68 -19 60 -5 -4 -16 1 -24 9 -19 19 -23 19 -31 -1z"/>
<path d="M3923 8544 c-9 -25 2 -59 24 -70 13 -6 20 -14 16 -18 -5 -4 0 -12 10
-18 14 -8 16 -13 6 -24 -6 -8 -16 -14 -22 -14 -6 0 -18 -7 -28 -16 -17 -15
-19 -14 -25 12 -4 16 -10 34 -14 39 -5 6 -10 24 -12 40 l-3 30 -19 -37 c-10
-21 -25 -38 -32 -38 -25 0 -16 -46 11 -60 14 -7 25 -17 25 -22 0 -4 5 -8 10
-8 6 0 9 3 9 8 -3 18 2 32 11 32 6 0 10 -6 10 -14 0 -13 6 -13 46 1 26 9 43
20 41 27 -3 7 8 18 24 25 35 15 38 31 5 31 -13 0 -28 6 -34 13 -12 15 -13 65
-1 73 5 3 9 9 9 14 0 14 -61 8 -67 -6z"/>
<path d="M9055 8535 c-22 -8 -40 -15 -40 -15 0 0 0 -23 0 -51 0 -42 4 -53 25
-69 l25 -19 5 57 5 57 37 0 c49 0 54 9 22 34 -31 25 -28 24 -79 6z"/>
<path d="M9100 8430 c0 -13 20 -13 40 0 12 8 9 10 -12 10 -16 0 -28 -4 -28
-10z"/>
<path d="M2782 8381 c-8 -4 -10 -15 -6 -26 6 -14 4 -16 -7 -10 -8 4 -11 5 -7
1 3 -4 2 -20 -3 -35 -8 -22 -5 -39 11 -77 19 -44 20 -46 15 -14 -3 19 -8 52
-12 73 -3 22 -2 37 5 37 9 0 27 49 20 56 -2 1 -9 -1 -16 -5z"/>
<path d="M2940 8275 c0 -14 4 -25 9 -25 12 0 23 29 15 41 -10 18 -24 9 -24
-16z"/>
<path d="M3220 8246 c0 -9 5 -16 10 -16 6 0 10 4 10 9 0 6 -4 13 -10 16 -5 3
-10 -1 -10 -9z"/>
<path d="M3100 8220 c0 -11 5 -20 10 -20 6 0 10 9 10 20 0 11 -4 20 -10 20 -5
0 -10 -9 -10 -20z"/>
<path d="M2780 8170 c0 -5 10 -14 22 -21 18 -10 20 -9 15 6 -4 9 -7 19 -7 21
0 2 -7 4 -15 4 -8 0 -15 -4 -15 -10z"/>
<path d="M8994 8118 c-3 -4 -27 -8 -55 -8 -27 0 -49 -4 -49 -9 0 -4 -18 -20
-40 -35 -42 -27 -54 -52 -21 -41 11 3 28 8 38 10 25 5 93 22 121 31 20 6 22 4
17 -17 -5 -20 -1 -26 25 -36 16 -6 30 -7 30 -2 0 5 7 9 15 9 8 0 15 -7 15 -16
0 -9 11 -25 25 -36 14 -11 23 -24 19 -29 -3 -5 4 -17 15 -27 15 -13 21 -32 24
-77 2 -46 7 -61 20 -63 28 -6 38 73 20 174 -11 63 -35 102 -68 110 -14 3 -30
15 -35 25 -6 11 -17 16 -26 12 -9 -3 -14 0 -12 8 3 15 -69 31 -78 17z"/>
<path d="M3653 8052 c-6 -20 -8 -43 -4 -50 5 -9 10 3 15 34 8 59 4 64 -11 16z"/>
<path d="M3245 7884 c-13 -14 -14 -19 -3 -25 23 -15 51 -11 44 7 -3 9 -6 20
-6 25 0 14 -17 11 -35 -7z"/>
<path d="M3300 7840 c0 -3 -3 -26 -5 -53 -5 -52 -21 -76 -46 -70 -12 4 -16 -2
-16 -21 0 -31 1 -32 28 -5 11 11 27 18 35 15 9 -3 18 2 22 14 4 10 11 19 17
19 21 -1 15 21 -7 22 -17 1 -18 3 -5 6 20 5 23 29 3 40 -7 4 -16 15 -19 23 -3
8 -6 13 -7 10z"/>
<path d="M3940 7811 c0 -13 28 -41 41 -41 6 0 9 10 7 23 -3 22 -48 40 -48 18z"/>
<path d="M3050 7801 c0 -6 4 -13 10 -16 6 -3 7 1 4 9 -7 18 -14 21 -14 7z"/>
<path d="M9197 7736 c-5 -15 -6 -31 -3 -34 8 -8 18 25 14 45 -3 13 -6 10 -11
-11z"/>
<path d="M3820 7741 c0 -6 5 -13 10 -16 6 -3 10 1 10 9 0 9 -4 16 -10 16 -5 0
-10 -4 -10 -9z"/>
<path d="M9140 7666 c0 -2 7 -7 16 -10 8 -3 12 -2 9 4 -6 10 -25 14 -25 6z"/>
<path d="M3722 7619 c1 -13 8 -23 13 -21 15 3 12 35 -3 40 -9 3 -13 -3 -10
-19z"/>
<path d="M4059 7603 c-1 -5 -1 -12 0 -16 1 -5 -3 -6 -8 -3 -14 9 -21 -8 -10
-24 8 -13 10 -13 19 0 10 16 14 50 5 50 -3 0 -6 -3 -6 -7z"/>
<path d="M3767 7569 c4 -13 8 -18 11 -10 2 7 -1 18 -6 23 -8 8 -9 4 -5 -13z"/>
<path d="M3879 7574 c-5 -15 -69 -27 -69 -13 0 6 -5 7 -10 4 -17 -11 15 -34
44 -31 17 2 26 -2 26 -10 0 -14 25 -14 47 -1 6 4 18 5 25 2 11 -4 15 3 15 27
0 18 -2 27 -4 21 -3 -7 -17 -13 -33 -13 -16 0 -30 6 -32 13 -3 8 -6 8 -9 1z"/>
<path d="M3996 7565 c-3 -9 0 -15 9 -15 9 0 12 6 9 15 -4 8 -7 15 -9 15 -2 0
-5 -7 -9 -15z"/>
<path d="M3770 7466 c0 -2 7 -6 15 -10 8 -3 15 -1 15 4 0 6 -7 10 -15 10 -8 0
-15 -2 -15 -4z"/>
<path d="M5159 7423 c-34 -26 -35 -29 -31 -81 4 -43 2 -54 -9 -50 -8 2 -15 18
-17 35 -2 17 -12 39 -23 49 -18 16 -19 16 -20 -7 0 -13 -2 -31 -4 -40 -1 -9
-6 -55 -9 -104 -4 -48 -11 -96 -16 -106 -6 -10 -10 -28 -10 -40 0 -22 0 -22
21 -3 13 11 19 13 17 5 -4 -19 32 -23 49 -5 13 12 12 14 -4 15 -15 0 -15 2 4
11 12 6 23 19 26 29 3 11 10 19 16 19 12 0 15 -36 4 -43 -5 -2 -2 -2 5 -1 7 2
12 -7 12 -24 0 -59 9 -71 51 -69 33 2 43 8 66 42 14 22 31 43 36 46 5 4 5 9
-2 13 -8 5 -8 13 0 28 10 18 -5 89 -39 178 -3 8 -4 18 -4 23 3 12 -39 97 -48
97 -5 0 -15 2 -22 5 -8 3 -30 -7 -49 -22z m35 -72 c18 -56 21 -120 6 -122 -5
-1 -16 -2 -22 -3 -7 -1 -13 -12 -13 -26 0 -36 -29 -33 -33 3 -3 22 1 30 17 34
20 5 38 38 32 58 -1 5 -4 22 -6 37 -2 15 -6 37 -10 48 -3 11 -2 20 3 20 5 0
17 -22 26 -49z m-34 -91 c0 -5 -5 -10 -11 -10 -5 0 -7 5 -4 10 3 6 8 10 11 10
2 0 4 -4 4 -10z m60 -61 c0 -4 -9 -9 -20 -12 -13 -3 -20 0 -20 8 0 8 9 13 20
12 11 -1 20 -4 20 -8z"/>
<path d="M249 7238 c-17 -18 -35 -44 -40 -57 -8 -20 -5 -170 6 -271 1 -14 3
-32 4 -41 2 -25 31 -32 58 -14 21 14 25 14 39 0 19 -19 37 -10 29 16 -6 16 -2
18 24 13 34 -7 37 -3 19 29 -6 12 -15 42 -19 67 -4 25 -11 64 -15 88 -5 30
-11 42 -20 38 -15 -6 -19 10 -5 18 5 3 12 22 15 41 4 20 11 33 17 30 5 -4 9
-2 9 4 0 5 -9 12 -19 16 -11 3 -18 12 -15 19 3 7 -3 16 -13 20 -10 3 -24 9
-30 12 -7 3 -27 -9 -44 -28z m58 -71 c1 -55 -1 -63 -17 -63 -10 0 -16 4 -13 9
3 5 5 30 5 55 -1 26 4 50 11 54 7 4 12 8 12 8 0 0 1 -28 2 -63z m-16 -133 c-8
-17 -8 -24 0 -24 8 0 8 -4 1 -12 -5 -7 -9 -30 -8 -50 0 -20 -2 -34 -6 -30 -10
10 -12 122 -3 151 7 22 8 23 17 7 7 -12 7 -26 -1 -42z m31 -66 c3 -7 2 -24 -2
-38 -6 -25 -6 -25 -17 7 -11 30 -8 43 8 43 4 0 9 -6 11 -12z"/>
<path d="M4224 7195 c-8 -20 3 -136 16 -170 5 -14 16 -25 25 -25 8 0 15 -4 15
-10 0 -15 39 -12 56 4 18 19 18 36 -1 36 -8 0 -15 5 -15 10 0 6 5 10 11 10 6
0 8 11 5 28 -4 15 -8 37 -11 50 -8 44 -35 60 -35 20 0 -27 -11 -16 -25 24 -12
36 -32 47 -41 23z m83 -95 c1 -11 -2 -20 -8 -20 -5 0 -9 9 -9 20 0 11 4 20 8
20 4 0 8 -9 9 -20z"/>
<path d="M8958 7157 c-33 -8 -38 -13 -44 -45 -11 -66 -10 -67 14 -65 37 4 69
32 76 64 9 46 -2 57 -46 46z"/>
<path d="M1078 7080 c-9 -22 -12 -40 -8 -40 5 0 7 -7 4 -15 -4 -8 -12 -15 -19
-15 -7 0 -15 -14 -19 -31 -9 -47 -8 -51 15 -47 21 3 49 69 63 151 9 51 -14 49
-36 -3z"/>
<path d="M181 6934 c0 -11 3 -14 6 -6 3 7 2 16 -1 19 -3 4 -6 -2 -5 -13z"/>
<path d="M11340 6922 c-14 -2 -28 -10 -32 -17 -14 -23 -90 -57 -115 -50 -27 6
-31 -15 -8 -55 8 -14 14 -41 15 -60 0 -20 5 -41 12 -48 7 -7 8 -12 2 -12 -5 0
-16 -16 -23 -35 -7 -20 -23 -42 -36 -51 -32 -21 -38 -51 -13 -68 13 -10 18
-21 14 -32 -6 -14 -1 -16 31 -11 22 4 44 15 53 27 8 12 28 35 43 52 28 30 29
30 43 10 9 -13 21 -18 34 -15 21 5 44 36 34 45 -2 3 2 11 11 18 8 7 15 24 15
39 1 25 1 25 15 7 12 -16 12 -22 2 -34 -10 -13 -9 -14 8 -3 15 10 20 24 20 52
0 21 -3 39 -7 39 -4 0 -3 11 4 25 7 16 8 29 1 37 -6 7 -16 35 -24 61 -10 35
-20 49 -36 54 -13 3 -27 10 -31 17 -4 6 -18 10 -32 8z m-35 -92 c3 -5 13 -6
21 -3 10 4 17 -2 21 -16 3 -11 12 -21 19 -21 10 0 8 -6 -6 -20 -19 -19 -19
-19 -50 11 -16 17 -30 37 -30 45 0 16 16 19 25 4z"/>
<path d="M1048 6913 c-14 -3 -18 -15 -18 -44 0 -31 8 -47 36 -79 39 -43 81
-61 94 -40 11 19 -6 69 -32 93 -13 12 -32 34 -43 48 -12 15 -27 24 -37 22z"/>
<path d="M7992 6840 c-13 -10 -24 -27 -24 -37 -1 -25 10 -102 21 -139 5 -17 5
-37 1 -44 -5 -7 -6 -19 -3 -26 2 -6 0 -15 -6 -19 -12 -7 -15 -84 -3 -86 4 -1
24 -2 44 -3 21 -1 40 -5 43 -8 4 -3 21 1 38 10 18 9 39 17 47 17 8 1 25 5 37
9 18 6 25 0 43 -32 21 -38 57 -68 67 -58 3 3 1 12 -6 19 -7 10 -8 29 -2 62 5
27 7 54 4 61 -2 6 0 15 6 19 6 3 11 11 11 16 0 6 -4 8 -8 5 -4 -2 -9 13 -9 35
-1 22 1 38 5 35 10 -6 5 65 -8 114 -7 27 -18 44 -31 47 -10 3 -19 10 -19 17 0
7 -3 8 -8 1 -12 -18 -80 -35 -85 -21 -2 6 -8 8 -12 4 -10 -9 16 -34 35 -33 34
1 43 -23 40 -118 -4 -162 -2 -149 -23 -128 -23 23 -39 128 -23 153 9 15 6 22
-19 42 l-30 24 -12 -50 c-21 -91 -38 -80 -46 31 -2 34 9 43 55 42 11 0 15 6
11 15 -6 15 -17 15 -57 -2 -16 -6 -18 -4 -12 11 4 11 2 22 -6 27 -19 12 -31 9
-56 -12z"/>
<path d="M11073 6853 c-18 -6 -16 -33 1 -33 8 0 24 9 37 20 l24 19 -25 0 c-14
0 -31 -3 -37 -6z"/>
<path d="M7121 6793 c0 -10 -1 -25 -3 -33 -6 -31 15 -245 26 -264 6 -12 19
-28 29 -37 9 -9 17 -22 17 -29 0 -7 3 -10 7 -6 11 11 12 35 2 42 -5 3 -9 31
-9 63 0 31 -5 84 -11 117 -6 32 -12 77 -13 99 -1 22 -5 46 -9 53 -12 18 -36
15 -36 -5z"/>
<path d="M12016 6684 c-4 -15 -16 -34 -27 -42 -20 -14 -25 -47 -10 -71 11 -16
31 -6 31 16 0 9 11 26 25 39 30 27 30 32 6 63 l-18 24 -7 -29z"/>
<path d="M11432 6577 c-22 -23 -20 -37 4 -37 11 0 29 48 21 56 -2 2 -13 -7
-25 -19z"/>
<path d="M2822 5935 l-32 -22 26 -11 c25 -12 25 -13 22 -114 -3 -115 -17 -144
-57 -119 -9 6 -13 37 -14 114 -1 58 -5 103 -9 101 -3 -2 -9 5 -13 15 -3 12
-12 18 -20 15 -10 -4 -11 -12 -6 -27 5 -12 8 -56 7 -97 -1 -41 3 -84 8 -95 9
-18 8 -19 -9 -5 -10 8 -16 10 -12 3 4 -6 3 -14 -2 -17 -12 -8 -23 36 -26 109
-4 68 -13 98 -27 89 -6 -4 -9 -49 -7 -113 2 -58 1 -107 -3 -108 -18 -6 -28 -2
-48 19 -17 18 -20 35 -20 109 0 86 -12 121 -25 78 -4 -12 -7 -44 -7 -71 0 -34
-4 -48 -14 -48 -10 0 -14 -15 -14 -54 0 -46 3 -56 20 -61 11 -3 24 -3 30 0 5
3 10 1 10 -5 0 -8 9 -10 28 -4 15 4 38 8 52 10 14 1 33 5 43 9 11 5 24 2 35
-7 29 -26 70 -30 107 -12 19 9 45 14 58 11 26 -7 41 1 51 28 7 19 9 18 35 -14
19 -23 32 -31 41 -26 7 4 28 8 46 7 35 -1 55 19 53 55 0 10 -3 13 -6 6 -8 -20
-43 -16 -43 5 0 10 -6 27 -14 37 -10 14 -11 26 -4 44 5 14 7 36 3 48 -4 18 -1
23 13 23 16 0 20 -10 25 -66 7 -75 10 -82 31 -65 10 8 13 24 9 49 -7 54 -45
142 -60 142 -16 0 -17 -22 -1 -38 9 -9 9 -12 0 -12 -7 0 -15 8 -19 18 -7 20
-33 52 -43 52 -8 0 -5 -122 5 -173 6 -32 4 -41 -16 -58 -30 -26 -36 -13 -34
74 1 40 -1 82 -5 93 -6 14 -4 26 5 35 19 18 5 41 -27 44 l-25 3 3 -89 c1 -49
5 -103 9 -119 6 -25 3 -31 -17 -39 -26 -10 -41 -5 -32 11 4 6 6 40 5 77 -4
102 -5 115 -16 124 -7 4 -6 10 1 15 7 4 5 12 -6 23 -15 14 -19 14 -48 -6z"/>
<path d="M9520 5903 c0 -5 -8 -9 -17 -10 -99 -9 -115 -13 -141 -35 -26 -21
-55 -97 -33 -83 12 7 26 -15 15 -24 -11 -7 -14 -22 -21 -76 -3 -30 -2 -36 6
-25 9 13 11 13 11 -2 0 -10 -5 -18 -10 -18 -15 0 -1 -51 19 -73 17 -17 18 -16
31 25 19 59 31 64 57 20 17 -27 19 -38 10 -44 -9 -6 -9 -8 1 -8 7 0 15 7 18
15 5 12 10 13 20 4 11 -9 14 -6 14 15 0 14 5 26 11 26 7 0 8 7 4 17 -3 10 -9
35 -12 56 -4 34 -3 38 13 35 16 -3 19 -15 22 -76 2 -46 0 -72 -7 -72 -6 0 -11
-5 -11 -11 0 -7 10 -9 24 -7 16 3 23 1 19 -8 -7 -20 10 -23 52 -8 25 8 43 10
49 4 13 -13 53 -13 61 0 4 6 16 8 27 5 14 -5 21 -1 25 13 6 23 53 28 53 5 0
-8 6 -13 12 -11 7 3 19 -4 28 -14 26 -31 44 -4 41 60 -1 15 -5 21 -12 16 -7
-4 -10 -1 -7 7 3 8 12 13 22 11 12 -2 16 5 16 28 0 17 -5 30 -12 30 -9 0 -10
2 -2 8 6 4 10 19 8 35 -1 15 2 27 7 27 5 0 9 -6 9 -14 0 -8 4 -17 9 -20 12 -8
4 69 -10 95 -6 12 -17 18 -25 15 -8 -3 -12 -2 -9 3 5 10 -15 19 -60 27 -16 3
-32 -3 -45 -16 -20 -20 -50 -27 -50 -12 0 4 4 12 9 18 6 5 1 13 -15 21 -23 11
-26 9 -35 -15 -7 -18 -7 -28 0 -30 17 -6 13 -173 -4 -196 -12 -16 -15 -17 -15
-4 0 23 -29 31 -37 11 -4 -9 -1 -19 5 -21 7 -2 19 -10 26 -18 8 -8 19 -14 25
-14 6 0 11 -4 11 -10 0 -16 -40 -12 -46 5 -4 8 -11 15 -16 15 -6 0 -8 -7 -4
-15 3 -9 -1 -15 -11 -15 -12 0 -14 7 -9 31 6 30 5 31 -20 25 -43 -11 -67 23
-60 82 10 86 13 107 21 140 6 30 5 32 -20 32 -14 0 -24 4 -20 9 3 5 1 12 -5
16 -5 3 -10 2 -10 -2z m-27 -122 c-5 -3 -12 -14 -16 -23 -12 -33 -37 -21 -37
17 0 44 28 63 49 33 8 -12 10 -23 4 -27z m311 -9 c-4 -18 -10 -32 -14 -32 -15
0 -19 30 -9 57 13 36 31 17 23 -25z m120 31 c4 -9 2 -21 -4 -27 -7 -7 -10 -5
-10 8 0 9 -4 14 -10 11 -6 -3 -7 1 -4 9 8 21 20 20 28 -1z m-100 -159 c5 -14
4 -15 -9 -4 -17 14 -19 20 -6 20 5 0 12 -7 15 -16z"/>
<path d="M9620 5857 c0 -13 5 -28 12 -35 8 -8 8 -15 -1 -26 -10 -11 -8 -17 11
-30 26 -19 42 -21 32 -5 -3 6 0 15 7 20 10 6 11 9 2 9 -7 0 -13 11 -13 25 0
14 6 25 13 25 8 0 7 3 -3 10 -9 6 -17 5 -21 -2 -4 -6 -10 -2 -14 11 -9 28 -25
27 -25 -2z"/>
<path d="M3667 5749 c-24 -14 -13 -27 18 -21 14 2 25 0 25 -7 0 -5 6 -8 14 -5
10 4 16 -2 18 -18 2 -13 9 -22 16 -20 18 3 15 -15 -4 -22 -8 -3 -13 -10 -9
-15 3 -5 1 -12 -5 -16 -6 -4 -10 -27 -9 -53 0 -26 -3 -60 -8 -76 -5 -15 -7
-43 -5 -61 3 -26 8 -32 23 -28 20 6 26 28 9 38 -6 4 -7 12 -3 18 15 23 33 168
21 161 -13 -8 -9 6 6 22 17 17 11 72 -11 97 -18 19 -68 22 -96 6z"/>
<path d="M3572 5739 c-13 -5 -21 -13 -17 -19 3 -5 8 -40 11 -76 2 -37 7 -71
10 -76 8 -13 24 1 24 20 0 11 9 18 25 18 16 1 25 -3 25 -13 0 -8 5 -11 10 -8
14 9 12 19 -7 43 -53 61 -53 62 -41 66 41 13 43 14 26 15 -10 1 -18 6 -18 12
0 5 5 7 10 4 6 -3 10 1 10 9 0 18 -31 20 -68 5z"/>
<path d="M9947 5703 c-9 -16 12 -53 27 -47 17 6 29 32 20 45 -6 11 -41 12 -47
2z"/>
<path d="M9960 5620 c-13 -8 -12 -10 3 -10 9 0 17 5 17 10 0 12 -1 12 -20 0z"/>
<path d="M9944 5575 c3 -9 0 -15 -8 -15 -9 0 -12 -7 -9 -20 6 -21 28 -27 38
-9 9 14 -3 59 -16 59 -6 0 -9 -7 -5 -15z"/>
<path d="M3620 5550 c12 -8 11 -10 -7 -10 -12 0 -25 -4 -28 -10 -3 -5 1 -10 9
-10 9 0 17 -8 17 -17 4 -40 -4 -98 -13 -104 -5 -3 -8 -40 -6 -82 2 -42 1 -76
-2 -74 -3 1 -19 -8 -37 -21 -36 -26 -47 -28 -40 -8 8 20 -18 39 -41 32 -25 -8
-52 2 -52 21 0 8 -4 12 -9 9 -8 -6 -77 26 -95 44 -13 13 -46 13 -46 0 0 -5 -7
-7 -16 -3 -8 3 -13 11 -11 17 3 7 -5 13 -16 14 -12 0 -23 6 -25 11 -2 6 -17 8
-33 4 -21 -4 -30 -1 -35 11 -3 9 -14 16 -24 16 -10 0 -20 9 -23 21 -3 12 -10
18 -16 14 -6 -3 -11 0 -11 8 0 8 -13 20 -30 27 -24 10 -32 10 -45 -3 -9 -10
-11 -18 -5 -22 16 -10 12 -23 -7 -21 -16 1 -18 -10 -19 -92 0 -63 -4 -96 -14
-105 -10 -10 -12 -9 -7 4 3 9 0 22 -6 28 -6 6 -12 39 -13 72 -2 57 -12 78 -37
79 -4 0 -7 -21 -6 -47 2 -27 -1 -58 -5 -70 -4 -15 -3 -23 3 -23 6 0 11 -5 11
-11 0 -5 -4 -8 -8 -5 -5 3 -8 -5 -7 -17 2 -12 7 -21 13 -20 12 3 26 -52 17
-67 -3 -5 1 -10 10 -10 12 0 15 6 10 21 -5 13 -3 19 3 15 5 -3 12 4 15 16 10
35 18 15 20 -46 2 -49 0 -55 -14 -51 -22 7 -32 -10 -25 -41 5 -20 9 -22 20
-12 8 7 11 17 9 22 -3 5 0 7 8 4 8 -3 16 -20 19 -39 3 -21 8 -29 13 -22 11 17
47 12 48 -7 1 -8 0 -41 -1 -74 -2 -47 1 -57 12 -50 7 5 21 7 30 6 18 -3 43 32
33 48 -17 28 32 16 111 -26 49 -26 105 -48 124 -50 19 -1 36 -7 38 -13 2 -5 9
-8 17 -5 7 3 35 -7 61 -21 27 -15 60 -29 74 -32 14 -2 27 -8 28 -14 2 -5 8 -7
13 -3 9 5 13 -9 10 -34 -1 -8 3 -20 9 -27 8 -10 8 -20 2 -31 -6 -10 -7 -27 -3
-38 6 -18 7 -54 2 -104 0 -7 -5 -11 -10 -8 -13 8 -31 -49 -25 -76 3 -13 5 -42
5 -65 0 -35 3 -41 19 -40 23 1 25 10 9 40 -9 15 -9 22 -1 25 6 2 8 10 5 18 -3
9 2 14 17 14 17 0 21 4 16 18 -3 9 4 4 15 -11 24 -32 43 -20 30 17 -7 19 -8
131 -3 239 2 40 28 53 34 17 3 -19 3 -19 34 1 29 18 31 23 24 54 -6 24 -4 35
6 39 9 3 11 0 7 -11 -4 -10 -2 -14 4 -10 11 7 8 76 -5 107 -3 8 -11 41 -17 73
-10 50 -10 59 4 67 10 6 11 10 4 10 -7 0 -13 4 -13 8 0 5 9 8 20 8 10 -1 19 4
19 9 0 6 -9 10 -19 9 -21 -1 -27 11 -10 21 7 4 8 26 4 58 -4 29 -8 67 -8 84 0
18 -6 35 -13 37 -7 3 -10 12 -7 21 3 8 10 13 14 10 5 -3 3 6 -3 20 -7 14 -15
25 -19 25 -8 0 -10 -10 -12 -60 -1 -15 -8 -26 -18 -28 -14 -3 -17 6 -18 55 -1
91 -1 112 0 128 0 8 0 38 -1 65 l-1 50 -37 0 c-27 0 -32 -3 -21 -10z m-600
-130 c0 -5 -4 -10 -10 -10 -5 0 -10 5 -10 10 0 6 5 10 10 10 6 0 10 -4 10 -10z
m94 -206 c8 -21 8 -24 -3 -24 -5 0 -11 9 -14 20 -6 24 8 27 17 4z m61 -3 c3
-5 1 -12 -5 -16 -5 -3 -10 1 -10 9 0 18 6 21 15 7z m324 -8 c3 -2 0 -8 -6 -14
-8 -8 -17 -5 -32 10 l-22 22 28 -7 c16 -4 30 -9 32 -11z m-243 -38 c-3 -9 -11
-13 -16 -10 -8 5 -7 11 1 21 14 18 24 11 15 -11z m354 0 c0 -8 -7 -15 -15 -15
-16 0 -20 12 -8 23 11 12 23 8 23 -8z m-13 -152 c-4 -3 -3 -11 2 -17 5 -6 12
-38 16 -72 5 -47 3 -63 -8 -73 -21 -17 -29 0 -29 60 0 27 -4 49 -8 49 -18 0
-14 36 5 47 24 13 31 15 22 6z m90 -269 c-12 -12 -25 7 -19 28 l5 22 10 -22
c6 -12 7 -25 4 -28z"/>
<path d="M9388 5553 c7 -3 16 -2 19 1 4 3 -2 6 -13 5 -11 0 -14 -3 -6 -6z"/>
<path d="M2526 5462 c-7 -11 5 -82 13 -82 3 0 12 9 19 21 8 12 19 18 28 15 18
-7 46 3 38 15 -3 5 -16 6 -29 3 -17 -4 -26 0 -35 15 -11 22 -25 27 -34 13z"/>
<path d="M2860 5440 c0 -5 5 -10 10 -10 6 0 10 5 10 10 0 6 -4 10 -10 10 -5 0
-10 -4 -10 -10z"/>
<path d="M2650 5429 c0 -5 5 -7 10 -4 6 3 10 8 10 11 0 2 -4 4 -10 4 -5 0 -10
-5 -10 -11z"/>
<path d="M2792 5427 c-19 -25 -24 -202 -6 -233 7 -12 10 -25 7 -28 -4 -4 -8
-12 -9 -19 -1 -7 -3 -16 -4 -22 -6 -27 1 -55 15 -55 8 0 15 -4 15 -10 0 -5 -6
-10 -14 -10 -8 0 -16 -7 -20 -15 -3 -8 -1 -15 4 -15 6 0 10 5 10 10 0 19 21
10 29 -12 8 -20 10 -21 16 -5 4 9 4 25 -1 35 -11 26 -16 82 -7 82 18 0 -2 248
-22 268 -3 3 0 11 6 18 6 7 6 14 1 18 -6 3 -14 0 -20 -7z m18 -337 c0 -5 -4
-10 -10 -10 -5 0 -10 5 -10 10 0 6 5 10 10 10 6 0 10 -4 10 -10z"/>
<path d="M2920 5430 c0 -5 7 -10 16 -10 8 0 12 5 9 10 -3 6 -10 10 -16 10 -5
0 -9 -4 -9 -10z"/>
<path d="M2890 5421 c0 -5 5 -13 10 -16 6 -3 10 -2 10 4 0 5 -4 13 -10 16 -5
3 -10 2 -10 -4z"/>
<path d="M2691 5295 c0 -75 4 -123 10 -120 5 4 9 -1 9 -10 0 -9 -4 -13 -10
-10 -14 9 -12 -8 3 -24 10 -11 10 -14 0 -18 -19 -7 -16 -53 4 -60 14 -6 14 -7
-4 -14 -16 -6 -20 -15 -17 -44 2 -30 -1 -38 -22 -45 -27 -11 -32 -37 -9 -46
12 -5 12 -9 -3 -30 -21 -29 -32 -30 -32 -5 0 11 -4 22 -10 26 -5 3 -7 12 -4
19 3 8 1 17 -5 21 -6 3 -11 1 -11 -6 0 -7 -3 -9 -6 -6 -4 4 -1 13 6 22 8 10 9
15 2 15 -6 0 -9 7 -6 15 4 8 1 15 -5 15 -19 0 -13 67 6 74 15 6 15 8 3 16 -13
8 -12 12 5 24 11 9 25 14 30 12 6 -2 10 26 9 73 0 42 2 85 6 96 10 34 -3 99
-21 103 -14 3 -17 -11 -21 -95 -3 -54 -1 -108 4 -121 10 -29 -14 -72 -28 -50
-23 35 -31 57 -23 60 9 3 16 105 8 113 -14 13 -28 -18 -29 -65 -3 -150 2 -280
10 -280 6 0 10 -9 10 -21 0 -11 -4 -17 -10 -14 -18 11 -11 -17 21 -82 29 -59
49 -73 49 -35 0 9 5 24 10 32 9 13 14 11 34 -12 28 -31 61 -28 70 5 l6 22 18
-22 c13 -16 22 -19 40 -12 21 8 26 21 23 64 -1 15 3 13 15 -10 18 -32 34 -46
45 -40 3 3 5 45 4 95 -1 49 2 90 7 90 4 0 8 5 8 10 0 6 -7 10 -15 10 -8 0 -14
-3 -14 -7 4 -24 -4 -33 -27 -33 -19 0 -25 -4 -20 -15 3 -8 1 -15 -4 -15 -6 0
-5 -10 1 -24 9 -19 8 -29 -5 -47 -12 -18 -16 -19 -16 -7 0 15 -19 28 -41 28
-5 0 -9 -11 -9 -25 0 -28 -6 -31 -25 -11 -10 10 -11 16 -2 25 8 8 7 11 -3 11
-13 0 -13 1 0 9 8 6 18 7 23 4 4 -3 14 3 22 13 14 20 11 91 -7 159 -6 22 -12
90 -12 150 -1 66 -7 119 -15 133 -6 12 -9 27 -6 32 3 6 -1 10 -9 10 -12 0 -15
-21 -15 -125z m33 -316 c-3 -5 -10 -7 -15 -3 -5 3 -7 10 -3 15 3 5 10 7 15 3
5 -3 7 -10 3 -15z"/>
<path d="M9366 5405 c-3 -9 -3 -74 -1 -146 l5 -130 -30 17 c-26 16 -31 16 -47
2 -28 -24 -53 -29 -59 -13 -8 20 -15 19 -59 -10 -20 -15 -40 -24 -42 -21 -9 9
-62 -23 -73 -44 -6 -11 -19 -20 -30 -20 -10 0 -22 -5 -25 -10 -4 -6 -10 -8
-15 -5 -4 3 -11 -3 -14 -12 -6 -15 -8 -15 -17 -3 -8 12 -12 12 -16 2 -9 -23
-47 -53 -63 -50 -8 2 -33 -8 -55 -22 -41 -24 -65 -27 -77 -7 -4 7 -8 8 -8 3 0
-5 -6 -3 -14 4 -8 6 -13 17 -10 24 3 8 -2 20 -10 29 -9 9 -16 24 -16 34 0 19
-18 43 -32 43 -4 0 -8 -29 -8 -65 0 -53 -3 -65 -16 -65 -14 0 -16 10 -11 68 6
78 -5 108 -27 79 -9 -12 -16 -14 -21 -7 -4 6 -2 16 3 23 11 14 11 73 -1 70 -4
-2 -17 -12 -30 -24 -15 -15 -17 -20 -6 -16 13 4 16 1 12 -14 -7 -24 -19 -32
-34 -23 -8 4 -7 9 2 15 11 7 11 9 1 9 -7 0 -11 3 -9 8 3 4 -1 12 -8 19 -10 10
-14 9 -19 -3 -11 -29 -6 -52 12 -57 14 -4 14 -5 1 -6 -17 -1 -25 -56 -10 -65
7 -5 5 -158 -3 -231 -2 -16 -4 -41 -4 -54 -2 -19 -5 -21 -16 -12 -11 9 -15 8
-20 -5 -5 -13 -15 -15 -41 -11 -26 4 -37 2 -44 -10 -10 -18 -121 -29 -121 -13
0 6 -11 9 -25 8 -14 -1 -25 -6 -25 -11 0 -4 -4 -5 -10 -2 -5 3 -10 2 -10 -2 0
-5 -15 -17 -32 -28 -18 -10 -37 -25 -42 -33 -6 -11 -10 -12 -16 -2 -8 14 -17
11 -65 -19 -16 -11 -38 -20 -47 -20 -10 -1 -18 -7 -18 -15 0 -8 -13 -23 -30
-33 -36 -21 -37 -28 -9 -44 17 -9 23 -7 36 10 19 27 37 28 23 1 -6 -11 -8 -24
-5 -29 7 -12 -52 -54 -68 -48 -6 2 -17 -3 -23 -11 -17 -23 -35 -6 -24 23 5 14
6 25 2 25 -13 -1 -57 -28 -54 -34 1 -3 2 -7 1 -8 0 -2 -2 -15 -4 -30 -2 -15
-10 -37 -18 -48 -17 -24 -11 -70 10 -70 8 0 24 10 36 23 21 22 85 57 105 57 5
0 12 9 15 20 3 12 11 18 19 15 8 -3 25 4 38 15 13 11 30 18 37 16 7 -3 13 -1
13 4 0 5 18 13 40 16 42 7 52 20 23 31 -15 6 -14 7 3 14 13 4 27 0 43 -15 l23
-21 -6 23 c-5 13 -3 22 3 22 6 0 11 -3 11 -7 0 -5 11 -13 25 -20 19 -8 27 -8
33 0 4 7 23 12 42 12 19 0 52 4 73 8 29 6 37 5 32 -3 -6 -9 -2 -9 12 -1 11 6
23 8 25 5 7 -6 78 -16 109 -15 28 1 39 -17 31 -52 -2 -12 -9 -16 -21 -12 -16
5 -18 0 -13 -42 3 -27 6 -72 6 -100 1 -29 3 -53 6 -53 3 0 6 -35 8 -77 3 -97
22 -234 33 -249 5 -6 32 -12 60 -13 l51 -1 -6 88 c-4 48 -8 98 -9 112 -2 14 1
31 6 38 5 6 6 12 1 12 -5 0 -9 10 -10 23 0 12 -3 34 -7 50 -3 15 -1 27 4 27 5
0 12 0 17 0 7 1 20 -61 47 -217 15 -91 20 -103 40 -103 9 0 12 -6 9 -15 -4 -9
0 -15 9 -15 8 0 17 9 20 20 3 11 1 20 -5 20 -6 0 -8 7 -4 15 3 8 0 52 -6 97
-5 46 -11 97 -12 115 -1 35 -16 58 -16 25 0 -11 -5 -24 -12 -28 -6 -4 -8 -3
-4 4 3 6 2 13 -4 17 -5 3 -10 17 -10 30 0 13 -4 26 -8 29 -5 3 -7 30 -4 60 3
44 0 62 -17 89 -23 38 -28 77 -8 77 6 0 32 14 57 30 25 17 83 49 130 72 47 24
87 45 90 48 11 11 51 30 64 30 8 0 36 11 63 24 26 13 63 27 81 31 17 4 32 11
32 16 0 6 5 7 11 4 5 -4 19 1 30 11 15 13 16 19 7 25 -7 4 -9 11 -5 15 4 4 13
-1 21 -11 13 -18 14 -17 30 7 13 19 14 31 7 52 -10 23 -8 26 13 24 22 -2 23
-6 18 -38 -3 -19 -9 -38 -15 -41 -5 -4 5 -10 24 -14 22 -5 34 -4 37 4 2 6 13
11 24 11 11 0 22 8 25 20 3 10 13 22 23 25 23 7 27 29 25 143 -1 50 2 92 7 92
4 0 3 9 -4 20 -12 18 -13 18 -29 1 -13 -14 -17 -39 -18 -117 -1 -92 -10 -128
-28 -110 -5 4 -9 40 -10 79 -1 40 -5 151 -9 247 -4 96 -7 186 -6 200 1 22 -24
90 -32 90 -2 0 -6 -7 -10 -15z m-86 -441 c0 -8 -4 -12 -10 -9 -5 3 -10 1 -10
-4 0 -6 -9 -11 -21 -11 -37 0 -69 -40 -69 -86 0 -47 -19 -63 -38 -33 -7 10
-19 19 -27 19 -11 0 -15 9 -13 30 1 17 6 30 11 30 4 0 7 -10 5 -22 -2 -17 1
-22 15 -20 9 2 17 -2 17 -8 0 -5 4 -10 9 -10 5 0 9 14 9 30 -1 34 35 80 62 80
9 0 25 7 36 15 24 18 24 18 24 -1z m-560 -34 c0 -5 -2 -10 -4 -10 -3 0 -8 5
-11 10 -3 6 -1 10 4 10 6 0 11 -4 11 -10z m-44 -56 c-4 -12 -10 -14 -17 -7 -5
5 -7 17 -3 27 4 12 10 14 17 7 5 -5 7 -17 3 -27z m614 16 c0 -5 -8 -10 -17
-10 -15 0 -16 2 -3 10 19 12 20 12 20 0z m-711 -107 c1 -29 -3 -53 -8 -53 -11
0 -20 67 -13 110 4 29 6 32 13 15 4 -11 8 -44 8 -72z m497 47 c0 -14 -13 -27
-41 -40 -46 -22 -65 -25 -65 -10 0 6 9 10 19 10 11 0 29 14 41 30 25 35 46 39
46 10z m289 0 c3 -5 1 -10 -4 -10 -6 0 -11 5 -11 10 0 6 2 10 4 10 3 0 8 -4
11 -10z m-75 -74 c-14 -14 -24 0 -16 21 6 15 8 15 16 3 6 -9 5 -19 0 -24z
m-351 -3 c-27 -34 -53 -54 -68 -51 -9 2 -25 -5 -36 -15 -43 -39 -168 -86 -180
-67 -12 19 62 60 109 60 4 0 24 17 42 37 19 20 34 34 34 31 0 -4 12 0 28 8 15
7 40 14 56 14 26 0 27 -2 15 -17z m-39 -98 c-7 -8 -17 -12 -23 -8 -6 4 -3 11
8 19 23 17 32 10 15 -11z m-395 -50 c7 -5 15 -23 18 -38 5 -32 -11 -44 -39
-29 -12 7 -24 6 -35 -1 -10 -6 -21 -8 -25 -5 -11 12 7 28 31 28 19 0 35 16 35
36 0 2 -13 4 -30 4 -38 0 -39 13 -2 26 18 7 28 7 31 -1 2 -5 10 -14 16 -20z
m300 2 c-15 -12 -39 -34 -55 -49 -15 -16 -31 -28 -35 -28 -4 0 -15 -10 -25
-22 -22 -27 -44 -14 -38 22 2 17 23 34 83 65 83 44 116 49 70 12z m-559 -24
c-10 -10 -19 5 -10 18 6 11 8 11 12 0 2 -7 1 -15 -2 -18z m354 -13 c0 -44 -5
-48 -32 -23 -23 20 -23 39 0 52 28 17 32 13 32 -29z m50 36 c0 -3 -4 -8 -10
-11 -5 -3 -10 -1 -10 4 0 6 5 11 10 11 6 0 10 -2 10 -4z m-483 -23 c2 -6 -6
-13 -19 -16 -28 -8 -34 -2 -17 17 15 16 31 16 36 -1z m178 -53 c-3 -5 -12 -10
-18 -10 -7 0 -6 4 3 10 19 12 23 12 15 0z m315 -176 c0 -8 -5 -12 -10 -9 -6 4
-8 11 -5 16 9 14 15 11 15 -7z m-9 -87 c-10 -9 -11 -8 -5 6 3 10 9 15 12 12 3
-3 0 -11 -7 -18z m36 1 c-3 -8 -6 -5 -6 6 -1 11 2 17 5 13 3 -3 4 -12 1 -19z
m-34 -248 c-3 -11 -7 -20 -9 -20 -2 0 -4 9 -4 20 0 11 4 20 9 20 5 0 7 -9 4
-20z"/>
<path d="M9449 5402 c7 -12 17 -20 22 -16 6 3 9 7 7 8 -2 1 -12 8 -22 16 -18
14 -19 14 -7 -8z"/>
<path d="M9556 5408 c5 -8 1 -9 -12 -4 -18 7 -18 6 -2 -10 9 -10 23 -14 33
-10 15 5 15 8 1 21 -17 18 -30 20 -20 3z"/>
<path d="M9902 5340 c0 -28 -4 -60 -7 -70 -6 -20 2 -26 20 -12 16 11 17 34 3
44 -10 8 -10 11 0 15 24 10 33 40 16 57 -25 25 -31 19 -32 -34z"/>
<path d="M2535 5357 c-4 -10 -3 -23 4 -30 16 -16 23 -3 12 24 -8 22 -10 22
-16 6z"/>
<path d="M9777 5359 c-17 -10 -22 -35 -11 -63 3 -9 10 -13 15 -10 5 3 9 -1 9
-8 0 -11 2 -11 9 0 8 13 8 79 0 87 -2 2 -12 -1 -22 -6z"/>
<path d="M9512 5308 c-7 -20 -8 -82 -2 -98 1 -3 2 -9 1 -14 -1 -5 5 -16 14
-26 15 -16 14 -18 -7 -25 l-23 -8 23 -4 c12 -2 22 -11 22 -19 0 -8 5 -14 10
-14 6 0 8 11 4 25 -3 14 -2 25 2 25 10 0 10 87 0 97 -3 3 -6 16 -6 29 0 52
-24 72 -38 32z"/>
<path d="M9606 5269 c-3 -17 -3 -49 1 -72 4 -29 3 -38 -5 -33 -7 4 -12 1 -12
-6 0 -7 -3 -23 -6 -34 -4 -16 0 -23 15 -27 17 -4 21 -13 21 -48 0 -32 3 -40
11 -32 6 6 12 24 13 40 1 15 5 34 10 42 6 9 3 18 -9 27 -15 11 -17 22 -11 69
10 85 -13 147 -28 74z"/>
<path d="M9450 5229 c0 -31 4 -48 10 -44 12 7 10 95 -2 95 -4 0 -8 -23 -8 -51z"/>
<path d="M9700 5231 c0 -6 4 -12 8 -15 5 -3 9 1 9 9 0 8 -4 15 -9 15 -4 0 -8
-4 -8 -9z"/>
<path d="M9897 5203 c-5 -25 11 -31 31 -11 18 18 15 34 -7 34 -12 0 -21 -9
-24 -23z"/>
<path d="M9700 5189 c0 -5 5 -7 10 -4 6 3 10 8 10 11 0 2 -4 4 -10 4 -5 0 -10
-5 -10 -11z"/>
<path d="M9779 5177 c-14 -11 -13 -14 6 -36 26 -26 36 -19 28 22 -6 30 -11 32
-34 14z"/>
<path d="M8661 5170 c-31 -4 -32 -6 -18 -19 9 -7 28 -11 41 -9 17 4 23 1 19
-9 -3 -8 2 -13 16 -13 24 0 25 4 11 29 -12 24 -27 28 -69 21z"/>
<path d="M9899 5143 c-2 -65 3 -109 17 -130 8 -12 14 -32 14 -45 0 -21 1 -21
16 -6 12 12 15 24 9 45 -4 15 -7 58 -7 96 1 65 0 67 -24 67 -19 0 -24 -5 -25
-27z"/>
<path d="M9450 5153 c0 -5 4 -15 10 -23 11 -18 25 -7 17 15 -6 15 -27 21 -27
8z"/>
<path d="M9700 5140 c0 -5 5 -10 11 -10 5 0 7 5 4 10 -3 6 -8 10 -11 10 -2 0
-4 -4 -4 -10z"/>
<path d="M9797 5093 c-4 -3 -7 -15 -7 -25 0 -10 -5 -18 -11 -18 -6 0 -17 -6
-25 -14 -7 -8 -19 -16 -26 -18 -15 -5 -15 -179 1 -290 2 -15 29 -8 36 10 4 9
6 49 5 87 -4 132 0 198 13 211 4 4 10 -4 15 -16 12 -32 26 -8 27 42 0 35 -12
48 -28 31z"/>
<path d="M2606 5060 c-13 -28 -13 -30 4 -30 15 0 29 25 30 53 0 18 -20 4 -34
-23z"/>
<path d="M8711 5076 c-14 -17 -7 -36 15 -36 15 0 18 18 5 38 -6 10 -10 10 -20
-2z"/>
<path d="M9547 5083 c-4 -3 -2 -12 4 -20 9 -10 8 -13 0 -13 -7 0 -9 -5 -5 -12
4 -7 7 -27 6 -45 -2 -18 1 -33 6 -33 5 0 9 -6 10 -12 4 -49 3 -98 -2 -116 -4
-11 -2 -23 3 -26 6 -4 7 -14 4 -23 -5 -13 -2 -15 11 -10 10 4 22 7 28 7 6 0 5
6 -2 15 -8 10 -15 54 -17 113 -3 72 -8 100 -19 109 -14 10 -13 12 3 22 10 6
12 11 6 11 -7 0 -13 9 -13 20 0 20 -11 26 -23 13z"/>
<path d="M3858 5061 c-17 -20 -8 -48 11 -37 7 5 11 -1 11 -13 0 -16 6 -21 25
-21 19 0 25 5 23 18 -2 13 3 16 25 14 22 -2 27 1 27 18 0 15 -5 20 -18 18 -11
-2 -27 4 -37 12 -17 14 -18 13 -11 -13 6 -24 4 -28 -10 -25 -9 2 -18 11 -20
21 -4 27 -8 29 -26 8z"/>
<path d="M4005 5041 c-6 -11 9 -23 19 -14 9 9 7 23 -3 23 -6 0 -12 -4 -16 -9z"/>
<path d="M2580 5010 c0 -5 5 -10 10 -10 6 0 10 5 10 10 0 6 -4 10 -10 10 -5 0
-10 -4 -10 -10z"/>
<path d="M2641 5011 c-8 -5 -11 -16 -6 -31 8 -24 19 -18 30 18 7 23 -1 28 -24
13z"/>
<path d="M4174 5011 c4 -6 2 -11 -3 -11 -6 0 -11 -5 -11 -11 0 -6 8 -9 18 -7
20 4 23 29 3 36 -8 3 -11 0 -7 -7z"/>
<path d="M2920 4996 c0 -8 7 -21 15 -30 17 -16 21 -66 5 -66 -5 0 -10 -10 -10
-22 0 -33 11 -68 21 -68 16 0 59 48 59 65 0 10 -3 16 -6 12 -3 -3 -14 2 -25
11 -14 12 -15 18 -6 24 9 6 9 10 -1 20 -6 6 -12 25 -12 40 0 21 -5 28 -20 28
-11 0 -20 -6 -20 -14z"/>
<path d="M9805 4980 c-3 -5 3 -10 14 -10 12 0 21 5 21 10 0 6 -6 10 -14 10 -8
0 -18 -4 -21 -10z"/>
<path d="M3780 4971 c0 -6 4 -13 10 -16 6 -3 7 1 4 9 -7 18 -14 21 -14 7z"/>
<path d="M3875 4949 c-4 -6 -4 -13 -1 -16 8 -8 36 5 36 17 0 13 -27 13 -35 -1z"/>
<path d="M3920 4949 c0 -5 5 -7 10 -4 6 3 10 8 10 11 0 2 -4 4 -10 4 -5 0 -10
-5 -10 -11z"/>
<path d="M3958 4948 c9 -9 15 -9 24 0 9 9 7 12 -12 12 -19 0 -21 -3 -12 -12z"/>
<path d="M4246 4943 c-3 -10 -2 -34 4 -52 12 -42 5 -54 -20 -39 -15 10 -22 10
-31 1 -16 -16 -3 -43 21 -43 11 0 23 -7 26 -15 4 -8 18 -15 33 -15 26 0 28 3
26 38 0 20 -8 51 -18 69 -9 17 -13 33 -8 35 4 2 0 11 -10 21 -17 18 -17 18
-23 0z"/>
<path d="M9653 4953 c4 -3 2 -12 -3 -18 -7 -9 -5 -12 10 -11 11 0 20 4 20 9 0
4 0 12 0 17 0 6 -7 10 -17 10 -9 0 -13 -3 -10 -7z"/>
<path d="M2780 4941 c0 -6 5 -13 10 -16 6 -3 10 1 10 9 0 9 -4 16 -10 16 -5 0
-10 -4 -10 -9z"/>
<path d="M9929 4930 c0 -3 -3 -33 -5 -66 -3 -47 0 -65 12 -75 23 -19 35 6 27
56 -5 36 -30 98 -34 85z"/>
<path d="M9637 4898 c-11 -9 -14 -18 -8 -27 7 -11 13 -9 29 7 29 29 12 44 -21
20z"/>
<path d="M3918 4828 c9 -9 15 -9 24 0 9 9 7 12 -12 12 -19 0 -21 -3 -12 -12z"/>
<path d="M9671 4806 c-5 -13 -16 -26 -23 -28 -20 -8 -21 -63 -2 -79 9 -8 31
-14 49 -14 25 0 31 4 30 20 -1 11 -9 21 -17 23 -20 4 -31 43 -22 77 8 32 -4
33 -15 1z"/>
<path d="M9824 4815 c3 -8 1 -26 -4 -40 -7 -20 -6 -25 5 -25 8 0 15 6 16 13 0
6 2 24 4 40 3 19 -1 27 -12 27 -9 0 -13 -6 -9 -15z"/>
<path d="M9855 4753 c-16 -36 -16 -63 -1 -63 23 0 41 39 22 46 -8 3 -12 12 -9
20 8 20 -3 17 -12 -3z"/>
<path d="M9942 4757 c-7 -8 -7 -17 2 -29 12 -16 13 -14 14 12 1 34 -1 35 -16
17z"/>
<path d="M9784 4734 c-2 -8 -6 -21 -9 -29 -2 -9 2 -15 10 -15 8 0 15 4 15 9 0
5 9 13 20 16 24 8 19 20 -10 28 -13 3 -23 0 -26 -9z"/>
<path d="M9510 4705 c0 -20 17 -28 23 -11 3 8 -1 17 -9 20 -8 3 -14 -1 -14 -9z"/>
<path d="M9885 4690 c-3 -5 -1 -10 4 -10 6 0 11 5 11 10 0 6 -2 10 -4 10 -3 0
-8 -4 -11 -10z"/>
<path d="M3742 4658 c-7 -7 -12 -18 -12 -26 0 -7 -4 -11 -9 -7 -10 6 -8 -55 5
-120 10 -50 10 -85 0 -107 -6 -13 -4 -18 8 -18 9 0 16 8 16 19 0 10 6 24 14
30 13 11 28 81 16 81 -3 0 -4 24 -4 52 2 65 -16 114 -34 96z"/>
<path d="M2865 4652 c-12 -8 -14 -71 -3 -87 3 -6 0 -27 -6 -47 -7 -20 -10 -42
-6 -48 6 -9 9 -9 11 -1 3 7 5 -8 5 -32 2 -48 30 -107 51 -107 16 0 16 13 2 64
-6 21 -7 42 -2 47 11 11 68 -18 103 -54 26 -27 30 -38 30 -85 0 -40 6 -62 22
-85 29 -41 96 -107 108 -107 6 0 10 -9 10 -19 0 -11 11 -28 25 -39 14 -11 25
-26 25 -33 0 -8 16 -47 35 -87 19 -39 34 -84 33 -100 -1 -15 4 -43 10 -62 6
-19 14 -55 17 -80 2 -25 8 -73 13 -108 5 -35 7 -74 6 -88 -1 -13 2 -26 7 -29
5 -4 9 -15 9 -25 0 -17 6 -19 48 -15 26 3 43 3 37 0 -6 -3 -10 -46 -10 -100 1
-52 -3 -95 -8 -95 -4 0 -5 -5 -1 -12 13 -21 10 -57 -5 -63 -20 -8 -26 2 -12
19 9 11 8 15 -5 20 -8 3 -17 6 -18 6 -6 0 0 -47 7 -58 5 -7 4 -19 -3 -27 -8
-9 -8 -15 0 -20 6 -3 8 -10 5 -15 -3 -5 -1 -11 5 -15 6 -4 7 -12 3 -18 -13
-21 -12 -58 2 -63 15 -6 12 -58 -3 -78 -5 -6 -11 -49 -12 -96 -2 -90 -3 -99
-15 -257 -9 -123 -3 -158 24 -144 13 8 21 27 26 68 8 61 15 192 15 255 -1 21
6 48 14 60 10 17 14 55 12 151 -1 115 1 127 17 127 13 0 17 9 18 38 1 20 1 43
0 50 -1 8 7 16 18 19 24 6 27 23 9 41 -10 10 -10 17 0 32 7 12 8 20 2 20 -15
0 -5 81 11 91 11 7 11 11 2 17 -8 5 -9 19 -3 48 14 59 19 256 8 278 -6 10 -11
55 -12 101 -1 46 -7 89 -13 97 -7 8 -15 34 -19 58 -4 25 -12 52 -19 60 -6 8
-12 24 -13 36 0 18 -26 65 -59 109 -5 6 -17 27 -27 48 -11 20 -22 37 -27 37
-4 0 -16 16 -28 35 -11 20 -29 38 -38 42 -10 4 -29 20 -43 37 -14 17 -37 44
-52 59 -16 16 -28 32 -28 35 0 4 -24 20 -53 36 -28 16 -57 37 -64 46 -7 10
-26 23 -43 30 -16 7 -30 16 -30 21 0 5 -9 9 -21 9 -11 0 -17 5 -14 10 3 6 2
10 -3 10 -5 0 -19 9 -32 20 -24 21 -39 24 -55 12z m67 -122 c10 -11 13 -22 8
-25 -13 -8 -32 4 -25 16 4 5 1 9 -4 9 -6 0 -11 5 -11 10 0 16 14 12 32 -10z
m133 -57 c14 -15 25 -31 25 -36 0 -4 4 -6 9 -3 5 3 14 0 20 -8 9 -11 7 -15 -8
-19 -22 -5 -81 33 -106 71 -15 21 -15 22 9 22 15 0 36 -12 51 -27z m-145 7 c0
-5 -4 -10 -10 -10 -5 0 -10 5 -10 10 0 6 5 10 10 10 6 0 10 -4 10 -10z m270
-134 c0 -2 -7 -7 -16 -10 -8 -3 -12 -2 -9 4 6 10 25 14 25 6z m20 -32 c0 -8
-4 -13 -9 -10 -5 4 -12 0 -14 -6 -4 -8 -6 -7 -6 4 -1 14 6 21 27 27 1 1 2 -6
2 -15z m-80 -33 c0 -5 -9 -11 -19 -14 -14 -3 -18 -1 -14 9 6 15 33 19 33 5z
m90 -11 c0 -5 -4 -10 -10 -10 -5 0 -10 5 -10 10 0 6 5 10 10 10 6 0 10 -4 10
-10z m54 1 c3 -5 -1 -11 -9 -14 -9 -4 -12 -1 -8 9 6 16 10 17 17 5z m-100 -72
c-8 -13 -21 -3 -27 22 -5 20 -5 20 13 4 11 -10 17 -22 14 -26z m172 -39 c17
-19 36 -54 44 -77 7 -24 21 -50 31 -59 10 -9 16 -20 13 -25 -2 -4 2 -25 11
-46 15 -36 25 -89 49 -282 2 -13 9 -27 16 -31 11 -7 9 -37 -6 -92 -11 -37 -32
-17 -43 40 -6 31 -18 89 -26 127 -8 39 -17 97 -20 130 -4 36 -14 71 -25 87
-11 15 -20 34 -20 42 0 8 -4 17 -8 20 -5 3 -21 38 -37 78 -16 40 -39 87 -52
104 -13 17 -23 33 -23 36 0 16 71 -22 96 -52z m81 -676 c-3 -3 -12 -4 -19 -1
-8 3 -5 6 6 6 11 1 17 -2 13 -5z m90 -129 c3 -17 -1 -25 -12 -25 -16 0 -19 17
-9 45 8 20 17 12 21 -20z m-2 -45 c-3 -5 -10 -10 -16 -10 -5 0 -9 5 -9 10 0 6
7 10 16 10 8 0 12 -4 9 -10z m-53 -208 c-7 -2 -12 -13 -12 -25 0 -20 -1 -21
-17 -4 -17 17 -17 19 1 32 10 8 24 11 29 8 8 -5 7 -8 -1 -11z"/>
<path d="M2722 4638 c-7 -7 -12 -18 -12 -26 0 -8 -6 -12 -14 -9 -9 4 -16 -3
-20 -19 -4 -15 -14 -24 -26 -25 -19 -1 -31 -4 -47 -9 -5 -1 -12 -2 -17 -1 -13
3 -46 -30 -41 -40 3 -4 1 -10 -3 -13 -12 -7 -3 -56 9 -56 6 0 12 7 15 15 9 22
23 18 17 -5 -3 -11 -9 -20 -14 -20 -4 0 -18 -10 -29 -22 -21 -23 -22 -23 -36
-3 -13 17 -16 18 -24 5 -6 -10 -4 -17 5 -23 18 -10 20 -33 3 -43 -6 -4 -8 -3
-4 4 3 6 -1 15 -10 20 -12 7 -22 4 -35 -9 -11 -11 -19 -23 -19 -29 0 -5 -4
-10 -10 -10 -5 0 -10 -9 -10 -19 0 -13 -8 -21 -22 -23 -17 -2 -24 -11 -26 -31
-2 -15 -8 -25 -13 -22 -5 4 -9 2 -9 -3 0 -6 -7 -13 -16 -16 -8 -3 -12 -2 -9 4
3 6 1 10 -4 10 -6 0 -11 -4 -11 -10 0 -5 -10 -20 -21 -31 -12 -12 -21 -32 -21
-45 0 -13 -4 -21 -9 -18 -11 6 -23 -41 -15 -62 4 -10 -3 -23 -16 -35 -20 -16
-21 -20 -8 -29 13 -9 12 -13 -9 -30 -18 -15 -19 -20 -7 -20 20 0 21 -29 1 -36
-8 -4 -15 -18 -15 -33 0 -15 -4 -31 -10 -37 -5 -5 -10 -26 -12 -47 -2 -34 -18
-66 -18 -37 0 6 -4 8 -10 5 -5 -3 -8 -27 -6 -53 1 -26 -1 -56 -6 -67 -7 -15
-4 -14 12 5 l21 25 -5 -25 c-3 -14 -3 -19 0 -12 3 6 11 12 18 12 14 0 10 -118
-4 -134 -5 -5 -2 -15 6 -23 16 -16 19 -93 4 -93 -5 0 -10 9 -10 20 0 11 -3 20
-8 20 -4 0 -7 18 -7 40 0 22 -5 44 -11 50 -15 15 -17 -46 -3 -157 11 -86 16
-98 42 -94 4 1 2 -9 -4 -21 -15 -26 -15 -42 -5 -120 8 -62 30 -94 41 -59 3 12
3 26 -1 32 -4 7 1 18 12 26 10 8 18 15 16 16 -2 1 1 15 7 30 14 36 14 78 1
113 -8 21 -8 29 2 36 10 6 10 8 -1 8 -9 0 -11 8 -7 24 4 16 1 26 -10 30 -8 3
-14 11 -13 18 2 7 0 22 -4 33 -9 26 7 81 22 77 9 -2 9 3 1 17 -14 28 -13 91 3
91 8 0 8 3 -2 9 -8 5 -15 18 -16 28 -1 10 -5 32 -9 50 -6 25 -3 36 15 54 22
22 36 103 19 114 -9 6 10 66 30 90 11 13 11 21 2 35 -7 12 -8 21 -2 25 6 3 10
14 10 23 0 10 11 34 25 55 14 20 23 37 20 37 -17 0 38 59 57 62 18 2 22 10 23
38 0 22 5 35 13 35 7 0 17 6 21 14 5 7 13 11 19 7 5 -3 15 1 21 8 7 8 30 17
52 21 29 5 43 13 49 29 12 32 38 50 70 48 16 -1 31 2 35 8 16 26 25 4 25 -60
0 -77 12 -91 28 -32 9 33 11 35 17 15 4 -13 15 -23 25 -23 14 0 17 10 18 68 1
99 1 100 13 80 8 -14 13 -15 23 -6 10 9 11 21 4 46 -7 23 -6 38 1 45 18 18 12
42 -16 68 -19 17 -24 19 -20 7 3 -9 0 -22 -8 -28 -11 -9 -17 -5 -29 24 -17 40
-17 41 -34 24z"/>
<path d="M9660 4525 c-14 -8 -33 -14 -42 -15 -27 0 -32 -18 -35 -129 -3 -110
-18 -154 -50 -149 -9 2 -18 -2 -20 -7 -2 -7 12 -11 34 -11 33 0 38 -3 36 -23
-2 -16 2 -21 15 -19 11 2 17 -3 16 -14 -2 -21 1 -22 27 -8 22 12 26 30 6 30
-7 0 -14 11 -15 26 -1 18 2 23 11 17 6 -4 18 -8 26 -8 7 0 22 -15 31 -33 16
-28 20 -31 28 -17 5 9 13 17 18 16 11 0 5 80 -7 95 -5 7 -9 16 -7 20 1 5 -2
24 -6 42 -5 22 -4 38 3 45 17 17 13 24 -14 31 -34 9 -32 28 3 24 24 -3 29 -9
44 -68 9 -36 16 -58 17 -49 1 8 9 24 19 35 14 15 17 26 11 42 -6 15 -5 21 1
17 6 -3 10 1 10 9 0 9 -4 16 -10 16 -5 0 -10 6 -10 14 0 7 -7 20 -16 27 -9 7
-20 24 -26 38 l-9 25 -19 -32 c-24 -40 -38 -41 -42 -3 -3 28 -4 29 -28 16z
m-23 -226 c2 -24 -1 -38 -7 -34 -12 7 -14 75 -2 75 4 0 8 -18 9 -41z"/>
<path d="M9840 4520 c9 -6 10 -10 3 -10 -13 0 -15 -58 -1 -66 4 -3 5 -16 2
-28 -6 -26 20 -44 33 -23 5 7 18 18 30 25 20 10 28 8 62 -15 48 -33 50 -39 14
-38 -14 0 -28 -6 -31 -14 -2 -8 0 -11 6 -7 5 3 12 -1 16 -9 3 -9 19 -15 41
-15 21 0 35 -5 36 -12 0 -7 4 -4 8 7 5 12 4 23 -3 27 -7 5 -5 8 6 8 28 0 47
-11 42 -25 -3 -8 4 -20 15 -27 12 -7 21 -18 21 -25 0 -7 8 -13 18 -13 12 0 13
-3 5 -8 -9 -6 -7 -12 7 -22 11 -8 20 -22 20 -32 0 -10 4 -18 9 -18 14 0 80
-72 87 -95 3 -11 15 -27 26 -35 10 -9 20 -23 22 -30 1 -8 12 -41 24 -74 13
-32 20 -61 17 -64 -2 -3 0 -11 5 -18 6 -6 13 -25 15 -40 2 -16 9 -56 15 -89
19 -101 19 -107 24 -197 3 -49 1 -90 -5 -93 -5 -4 -10 1 -10 9 -2 17 -3 23
-11 46 -19 54 -40 129 -42 150 -1 14 -8 35 -14 46 -6 12 -15 52 -20 90 -5 38
-20 94 -32 124 -13 30 -26 64 -30 75 -16 44 -52 115 -58 115 -4 0 -15 14 -24
30 -35 61 -52 26 -18 -37 11 -21 20 -43 20 -50 0 -19 -20 -16 -27 5 -11 27
-59 95 -86 120 -20 19 -28 21 -50 13 -25 -10 -40 -51 -19 -51 10 0 74 -89 76
-108 2 -8 10 -18 19 -24 9 -5 17 -17 17 -26 0 -10 6 -26 13 -37 7 -11 14 -31
15 -45 1 -14 13 -53 26 -87 14 -33 27 -85 29 -115 2 -29 11 -98 19 -153 9 -55
15 -113 14 -130 -1 -16 6 -42 16 -57 10 -14 18 -33 18 -42 0 -9 4 -16 9 -16 5
0 19 -16 30 -36 12 -20 25 -34 28 -31 3 4 1 12 -4 19 -16 19 -24 71 -14 86 6
10 10 7 15 -12 7 -27 25 -36 27 -13 2 32 18 -33 18 -75 1 -38 -2 -46 -14 -42
-20 8 -19 -4 6 -55 16 -35 23 -40 34 -31 11 9 12 17 4 31 -5 10 -6 19 -1 19 7
0 9 72 2 95 -2 6 -4 21 -6 35 -1 14 -7 43 -13 65 -5 22 -8 41 -5 44 10 11 33
-39 44 -97 7 -34 16 -65 22 -68 5 -3 6 -14 3 -24 -3 -10 -1 -21 5 -25 5 -3 10
-16 10 -29 0 -12 3 -26 8 -30 4 -4 7 -11 7 -14 1 -4 5 -25 10 -47 4 -22 8 -44
7 -48 -1 -4 10 -24 25 -44 22 -28 28 -48 31 -102 l3 -66 -19 29 c-11 16 -23
48 -27 71 -4 31 -13 48 -31 59 -18 12 -24 24 -22 45 2 28 -16 61 -33 61 -5 0
-9 -7 -9 -16 0 -23 31 -113 41 -120 5 -3 9 -15 9 -27 0 -13 7 -33 16 -45 8
-12 17 -30 19 -40 5 -17 25 -99 29 -117 2 -5 11 -28 21 -50 25 -57 36 -102 38
-160 2 -38 6 -50 19 -53 28 -5 32 42 15 147 -9 53 -18 134 -19 181 -2 47 -7
88 -13 92 -6 5 -5 8 3 8 6 0 12 6 12 14 0 8 -6 21 -12 28 -16 16 -19 33 -23
133 -1 44 -4 82 -5 85 -2 3 -4 25 -6 50 -1 25 -5 65 -8 90 -4 36 -15 173 -19
238 0 6 -4 12 -8 12 -4 0 -6 18 -3 41 3 24 0 47 -7 55 -6 7 -9 20 -6 28 3 8 3
17 -1 20 -3 4 -7 14 -8 24 -5 34 -15 75 -34 131 -10 31 -22 72 -26 91 -3 19
-10 41 -14 50 -21 41 -50 121 -50 139 0 25 -31 91 -42 91 -4 0 -8 7 -8 16 0 8
-4 13 -9 10 -5 -3 -12 10 -15 29 -4 19 -15 40 -25 47 -10 7 -19 16 -19 21 -2
24 -12 31 -50 33 -47 2 -48 1 -28 -18 19 -19 30 -58 17 -58 -6 0 -11 4 -11 10
0 5 -11 12 -24 16 -29 7 -36 29 -23 61 8 17 6 27 -5 40 -9 10 -18 27 -21 38
-3 13 -5 15 -6 4 -1 -13 -9 -15 -48 -9 -26 4 -49 13 -51 19 -2 6 -11 11 -20
11 -10 0 -38 11 -63 25 -26 13 -50 21 -54 17 -5 -4 -6 1 -2 10 3 10 0 19 -9
22 -25 10 -41 7 -24 -4z m413 -607 c2 -5 7 -21 11 -36 5 -21 3 -28 -6 -25 -14
5 -30 68 -17 68 4 0 10 -3 12 -7z m32 -123 c3 -5 1 -10 -4 -10 -6 0 -11 5 -11
10 0 6 2 10 4 10 3 0 8 -4 11 -10z m5 -40 c0 -11 3 -20 8 -20 4 0 8 -26 10
-58 3 -50 1 -55 -12 -42 -15 16 -28 140 -14 140 4 0 8 -9 8 -20z m35 -50 c3
-5 1 -10 -4 -10 -6 0 -11 5 -11 10 0 6 2 10 4 10 3 0 8 -4 11 -10z m25 -82 c7
-23 6 -28 -7 -28 -9 0 -13 3 -10 7 4 3 3 11 -3 18 -5 6 -6 22 -3 35 4 16 8 19
11 10 2 -8 7 -27 12 -42z m30 -136 c11 -29 11 -35 -5 -50 -17 -16 -17 -15 -12
15 4 18 2 35 -3 38 -6 3 -10 16 -10 28 0 26 12 13 30 -31z m-40 -32 c0 -5 -4
-10 -10 -10 -5 0 -10 5 -10 10 0 6 5 10 10 10 6 0 10 -4 10 -10z m50 -40 c0
-5 -5 -10 -11 -10 -5 0 -7 5 -4 10 3 6 8 10 11 10 2 0 4 -4 4 -10z m-59 -23
c-10 -9 -11 -8 -5 6 3 10 9 15 12 12 3 -3 0 -11 -7 -18z m164 -197 c3 -5 1
-10 -4 -10 -6 0 -11 5 -11 10 0 6 2 10 4 10 3 0 8 -4 11 -10z"/>
<path d="M2497 4473 c-11 -11 -8 -34 7 -48 12 -12 15 -11 19 5 3 11 1 20 -4
20 -4 0 -6 7 -3 15 6 15 -7 21 -19 8z"/>
<path d="M9540 4450 c0 -5 5 -10 11 -10 5 0 7 5 4 10 -3 6 -8 10 -11 10 -2 0
-4 -4 -4 -10z"/>
<path d="M9430 4433 c-8 -3 -23 -12 -32 -20 -9 -8 -21 -12 -26 -9 -6 3 -23 -7
-39 -24 -15 -16 -34 -30 -40 -30 -7 0 -13 -4 -13 -10 0 -5 -11 -12 -25 -16
-14 -3 -25 -13 -25 -21 0 -10 -6 -13 -16 -9 -13 5 -14 1 -9 -24 6 -26 4 -30
-14 -30 -12 0 -21 -4 -21 -10 0 -5 5 -10 11 -10 16 0 5 -63 -20 -111 -12 -21
-18 -39 -14 -39 3 0 0 -8 -8 -17 -18 -22 -19 -75 -1 -80 6 -3 12 2 12 11 0 9
7 16 15 16 18 0 18 -5 5 -31 -7 -12 -21 -19 -40 -19 -28 0 -36 -9 -30 -35 1
-5 1 -35 0 -65 0 -30 -3 -181 -6 -334 -2 -154 -6 -282 -9 -284 -9 -9 -13 2
-18 45 -2 23 -11 49 -20 58 -16 15 -17 14 -19 -17 0 -18 0 -40 1 -48 1 -8 4
-26 5 -40 2 -14 4 -31 4 -38 1 -7 7 -10 12 -7 6 3 10 1 10 -4 0 -18 18 -12 23
7 4 13 5 12 6 -4 1 -23 -24 -40 -34 -23 -4 5 -10 7 -15 4 -12 -7 4 -58 20 -63
9 -3 11 1 7 12 -7 19 6 22 20 4 9 -14 9 -105 -1 -115 -3 -4 -6 0 -6 8 0 11 -2
11 -10 -1 -9 -13 -10 -13 -10 0 0 9 5 21 11 27 9 9 7 12 -8 10 -19 -1 -20 -7
-18 -75 2 -53 8 -79 21 -93 11 -12 13 -19 5 -19 -16 0 -8 -207 8 -223 17 -17
25 0 25 53 0 27 3 47 8 44 4 -3 5 2 2 10 -4 11 0 16 10 16 9 0 16 -8 16 -20 0
-19 9 -24 36 -21 6 1 16 -28 22 -63 16 -83 15 -119 0 -113 -7 2 -13 12 -13 23
0 10 -3 18 -8 17 -4 -2 -11 -3 -16 -3 -9 0 -7 -48 5 -87 4 -14 2 -23 -5 -23
-6 0 -11 9 -11 19 0 11 -4 22 -9 25 -5 3 -7 14 -4 24 3 12 -3 22 -19 29 -13 7
-17 12 -10 12 17 1 15 31 -3 31 -13 0 -21 -27 -15 -55 1 -5 4 -18 5 -28 2 -10
13 -33 25 -51 12 -21 20 -50 20 -78 0 -24 6 -50 13 -57 9 -10 9 -15 0 -18 -6
-2 -9 -17 -7 -36 13 -91 25 -142 34 -145 6 -2 10 -10 10 -18 0 -8 8 -14 18
-14 16 0 20 -14 31 -102 17 -149 37 -215 57 -195 3 3 13 37 23 76 14 57 15 71
4 71 -10 0 -11 4 -2 19 9 13 9 26 2 48 -7 18 -7 36 -2 46 7 11 3 28 -11 54
-11 21 -20 32 -20 25 0 -7 -4 -10 -10 -7 -18 11 -11 33 8 28 20 -5 20 -9 6
117 -3 36 -12 70 -19 75 -9 8 -11 23 -5 52 4 27 3 46 -4 53 -8 8 -7 13 2 18 6
5 12 19 11 33 -1 53 -6 176 -7 205 -2 24 -7 31 -19 30 -12 0 -16 4 -14 14 3 8
6 40 7 70 2 66 9 106 23 143 6 16 7 36 2 50 -5 12 -8 43 -7 70 1 52 -1 55 -20
30 -19 -27 -26 -10 -9 23 8 16 11 30 6 32 -4 1 -6 13 -4 27 3 15 10 22 19 18
12 -4 13 2 9 28 -3 18 -8 35 -10 38 -3 2 0 10 6 18 7 8 8 13 1 13 -13 0 -25
48 -15 63 12 18 11 111 -1 120 -8 5 -7 10 3 16 10 6 10 10 1 16 -6 4 -9 14 -6
22 4 9 2 21 -3 27 -8 10 -16 71 -11 89 1 4 3 12 4 18 0 6 9 16 19 23 25 19 21
29 -5 14 -38 -22 -50 -36 -35 -41 9 -4 9 -7 -1 -18 -11 -12 -14 -12 -22 1 -12
18 -11 20 -16 -60 -2 -36 -7 -72 -11 -80 -11 -25 -20 61 -9 100 5 19 8 60 8
90 0 30 4 60 10 67 6 8 6 19 -2 33 -6 11 -8 25 -4 31 3 6 -2 17 -12 25 -17 14
-18 15 -1 10 15 -5 16 -2 7 14 -8 15 -6 21 10 30 12 7 17 16 13 27 -5 13 -2
15 11 10 10 -4 20 -7 22 -7 3 0 3 -4 -1 -9 -3 -5 -1 -12 4 -16 6 -3 13 11 16
32 4 21 8 43 9 48 2 6 -9 18 -23 27 -14 10 -20 18 -13 18 6 0 12 8 12 19 0 10
7 24 15 31 9 7 15 29 15 51 0 22 5 39 10 39 6 0 10 6 10 13 0 6 16 28 35 46
19 19 37 43 41 53 7 22 17 23 34 3 7 -8 16 -15 21 -15 5 0 9 7 9 15 0 8 -5 15
-11 15 -5 0 -7 5 -3 11 4 8 9 8 17 0 6 -6 21 -11 33 -11 12 0 24 -5 26 -12 5
-13 28 -2 28 13 0 6 -5 7 -10 4 -7 -4 -8 8 -4 35 9 52 -10 70 -56 53z m20 -28
c-7 -9 -15 -13 -19 -10 -3 3 1 10 9 15 21 14 24 12 10 -5z m-282 -936 c1 -25
-2 -28 -14 -18 -18 15 -18 49 -1 49 9 0 14 -12 15 -31z m12 -267 c0 -8 -5 -10
-12 -6 -8 5 -9 2 -5 -10 4 -10 7 -22 7 -27 0 -6 5 -7 10 -4 6 4 11 -8 11 -27
1 -18 3 -40 4 -48 1 -8 3 -21 4 -27 0 -7 8 -13 16 -13 17 0 18 -2 9 -25 -5
-13 -8 -14 -15 -3 -8 12 -14 -38 -11 -102 1 -17 -3 -13 -12 15 -7 22 -12 60
-11 85 1 30 -5 54 -17 72 -14 20 -18 44 -18 105 l0 78 20 -25 c11 -14 20 -31
20 -38z m-100 -274 c0 -16 -3 -19 -11 -11 -6 6 -8 16 -5 22 11 17 16 13 16
-11z m117 -70 c-3 -8 -6 -5 -6 6 -1 11 2 17 5 13 3 -3 4 -12 1 -19z m4 -45
c-8 -15 -10 -15 -11 -2 0 17 10 32 18 25 2 -3 -1 -13 -7 -23z m19 -303 c0 -5
-4 -10 -10 -10 -5 0 -10 5 -10 10 0 6 5 10 10 10 6 0 10 -4 10 -10z m16 -97
c7 -37 9 -72 6 -78 -6 -9 -11 9 -28 115 -11 70 8 38 22 -37z m34 -167 c0 -41
-17 -21 -25 29 -7 38 -6 39 9 20 8 -11 16 -33 16 -49z m5 -46 c3 -5 1 -10 -4
-10 -6 0 -11 5 -11 10 0 6 2 10 4 10 3 0 8 -4 11 -10z"/>
<path d="M9166 3131 c-4 -7 -5 -15 -2 -18 9 -9 19 4 14 18 -4 11 -6 11 -12 0z"/>
<path d="M3770 4420 c0 -5 5 -10 10 -10 6 0 10 5 10 10 0 6 -4 10 -10 10 -5 0
-10 -4 -10 -10z"/>
<path d="M3636 4402 c-12 -20 3 -32 40 -32 25 0 34 4 34 16 0 12 -7 15 -30 12
-16 -2 -31 0 -33 6 -2 6 -6 5 -11 -2z"/>
<path d="M2818 4368 c-4 -12 -2 -73 2 -73 8 0 6 -52 -2 -62 -6 -7 -5 -14 3
-19 7 -4 15 -2 17 4 2 7 10 12 18 12 10 0 14 13 14 44 0 25 5 48 11 52 7 4 1
15 -16 30 -32 27 -41 29 -47 12z"/>
<path d="M9530 4370 c0 -5 5 -10 11 -10 5 0 7 5 4 10 -3 6 -8 10 -11 10 -2 0
-4 -4 -4 -10z"/>
<path d="M9807 4336 c-3 -8 -3 -39 0 -70 5 -46 8 -54 19 -45 8 6 14 8 14 3 0
-4 5 -3 12 4 19 19 45 14 65 -12 19 -26 73 -46 73 -28 0 6 -5 14 -11 18 -8 4
-7 9 2 15 12 8 12 10 0 18 -8 5 -20 7 -27 4 -6 -2 -19 5 -27 17 -8 11 -21 20
-28 18 -10 -2 -14 8 -15 32 0 25 -5 36 -17 38 -9 2 -17 -2 -17 -9 0 -10 -3
-10 -12 -1 -16 16 -25 15 -31 -2z"/>
<path d="M2623 4301 c-29 -24 -31 -55 -4 -46 23 7 51 -3 51 -20 0 -7 12 -12
30 -11 36 1 40 16 4 16 -15 0 -23 4 -19 11 9 14 -14 69 -29 69 -6 -1 -21 -9
-33 -19z"/>
<path d="M3012 4299 c2 -7 10 -15 17 -17 8 -3 12 1 9 9 -2 7 -10 15 -17 17 -8
3 -12 -1 -9 -9z"/>
<path d="M9490 4300 c0 -5 4 -10 9 -10 6 0 13 5 16 10 3 6 -1 10 -9 10 -9 0
-16 -4 -16 -10z"/>
<path d="M10075 4300 c-3 -5 1 -10 9 -10 9 0 16 5 16 10 0 6 -4 10 -9 10 -6 0
-13 -4 -16 -10z"/>
<path d="M9389 4258 c-14 -13 -34 -22 -47 -20 -12 2 -22 -2 -22 -8 0 -6 5 -8
10 -5 16 10 11 -15 -8 -43 -24 -36 -27 -74 -4 -70 9 2 18 12 21 23 2 11 13 30
25 41 45 45 65 75 59 89 -7 19 -6 19 -34 -7z"/>
<path d="M10115 4239 c-11 -17 1 -21 15 -4 8 9 8 15 2 15 -6 0 -14 -5 -17 -11z"/>
<path d="M2896 4215 c4 -8 8 -15 10 -15 2 0 4 7 4 15 0 8 -4 15 -10 15 -5 0
-7 -7 -4 -15z"/>
<path d="M9285 4200 c-3 -5 -1 -10 4 -10 6 0 11 5 11 10 0 6 -2 10 -4 10 -3 0
-8 -4 -11 -10z"/>
<path d="M8770 4190 c0 -5 5 -10 10 -10 6 0 10 5 10 10 0 6 -4 10 -10 10 -5 0
-10 -4 -10 -10z"/>
<path d="M9131 4193 c-31 -13 -54 -48 -58 -90 -3 -33 0 -43 11 -43 9 0 20 9
26 20 6 11 15 18 21 15 5 -4 9 1 9 9 0 9 -4 16 -10 16 -5 0 -1 16 10 35 27 47
26 52 -9 38z"/>
<path d="M9800 4193 c-24 -9 -50 -35 -50 -50 0 -8 4 -12 8 -9 5 3 21 7 36 10
33 6 32 5 40 34 8 23 -2 27 -34 15z"/>
<path d="M2490 4180 c0 -6 -12 -15 -26 -20 -18 -7 -24 -15 -20 -26 3 -9 6 -20
6 -26 0 -6 6 -6 15 2 8 7 15 19 15 26 0 8 5 14 11 14 5 0 7 5 4 10 -3 6 -1 10
4 10 6 0 11 5 11 10 0 6 -4 10 -10 10 -5 0 -10 -5 -10 -10z"/>
<path d="M9410 4149 c0 -5 5 -7 10 -4 6 3 10 8 10 11 0 2 -4 4 -10 4 -5 0 -10
-5 -10 -11z"/>
<path d="M9387 4123 c-4 -3 -7 -11 -7 -17 0 -6 5 -5 12 2 6 6 9 14 7 17 -3 3
-9 2 -12 -2z"/>
<path d="M2396 4083 c-13 -21 -22 -40 -19 -43 2 -3 9 4 15 14 6 10 19 27 29
37 21 21 24 29 9 29 -5 0 -20 -17 -34 -37z"/>
<path d="M9298 4065 c-27 -45 -48 -88 -48 -101 0 -19 25 -13 25 7 1 8 9 26 19
41 10 15 16 35 14 45 -2 10 -6 14 -10 8z"/>
<path d="M2190 4040 c-9 -6 -10 -10 -3 -10 6 0 15 5 18 10 8 12 4 12 -15 0z"/>
<path d="M2345 4010 c-3 -5 -4 -14 0 -19 3 -5 1 -12 -4 -16 -10 -6 -11 -45 -1
-45 27 1 51 90 24 90 -7 0 -16 -4 -19 -10z"/>
<path d="M2300 3966 c0 -8 5 -18 10 -21 6 -3 10 1 10 9 0 8 -4 18 -10 21 -5 3
-10 -1 -10 -9z"/>
<path d="M9020 3960 c-6 -12 -9 -24 -7 -27 3 -2 1 -18 -3 -34 -7 -23 -5 -31
10 -39 24 -13 33 -13 25 0 -4 6 -1 17 5 26 19 22 17 88 -2 92 -9 2 -22 -6 -28
-18z"/>
<path d="M2312 3898 c6 -18 28 -21 28 -4 0 9 -7 16 -16 16 -9 0 -14 -5 -12
-12z"/>
<path d="M9234 3885 c3 -9 0 -12 -10 -8 -9 3 -14 -2 -14 -17 0 -12 -5 -31 -11
-42 -6 -11 -12 -34 -13 -49 -2 -25 1 -28 23 -27 25 2 76 28 55 28 -6 0 -11 16
-12 35 -1 19 2 35 7 35 17 0 6 49 -12 54 -13 3 -17 0 -13 -9z"/>
<path d="M8711 3854 c0 -11 3 -14 6 -6 3 7 2 16 -1 19 -3 4 -6 -2 -5 -13z"/>
<path d="M9000 3821 c0 -29 25 -50 33 -28 5 15 -13 57 -25 57 -4 0 -8 -13 -8
-29z"/>
<path d="M2272 3788 c3 -7 13 -15 24 -17 16 -3 17 -1 5 13 -16 19 -34 21 -29
4z"/>
<path d="M8995 3740 c-3 -5 3 -10 14 -10 12 0 21 5 21 10 0 6 -6 10 -14 10 -8
0 -18 -4 -21 -10z"/>
<path d="M9351 3674 c0 -11 3 -14 6 -6 3 7 2 16 -1 19 -3 4 -6 -2 -5 -13z"/>
<path d="M2285 3648 c-14 -39 -9 -88 10 -88 15 0 17 5 19 62 1 32 -20 51 -29
26z"/>
<path d="M2116 3590 c-15 -5 -16 -9 -7 -14 7 -5 18 -3 24 3 14 14 6 20 -17 11z"/>
<path d="M9000 3531 c0 -22 4 -43 10 -46 5 -3 8 -24 6 -45 -2 -25 2 -44 10
-51 11 -9 14 -8 14 0 0 7 5 9 11 6 5 -4 3 10 -6 32 -9 21 -15 54 -14 73 3 56
0 70 -16 70 -11 0 -15 -11 -15 -39z"/>
<path d="M2300 3514 c0 -8 -4 -13 -9 -10 -5 4 -7 -3 -4 -14 5 -19 6 -19 19 6
17 31 17 34 4 34 -5 0 -10 -7 -10 -16z"/>
<path d="M2280 3381 c0 -51 3 -61 18 -61 16 -1 16 -1 0 -14 -23 -17 -23 -26 2
-26 21 0 22 4 21 60 -1 97 -41 136 -41 41z"/>
<path d="M1650 3305 c0 -9 5 -15 11 -13 6 2 11 8 11 13 0 5 -5 11 -11 13 -6 2
-11 -4 -11 -13z"/>
<path d="M3390 3289 c0 -12 5 -19 12 -17 18 6 20 25 3 31 -10 5 -15 0 -15 -14z"/>
<path d="M2286 3255 c-9 -26 -7 -32 5 -12 6 10 9 21 6 23 -2 3 -7 -2 -11 -11z"/>
<path d="M4520 3230 c0 -11 4 -20 9 -20 13 0 32 26 24 33 -13 14 -33 6 -33
-13z"/>
<path d="M2290 3210 c0 -5 5 -10 11 -10 5 0 7 5 4 10 -3 6 -8 10 -11 10 -2 0
-4 -4 -4 -10z"/>
<path d="M2290 3179 c0 -5 5 -7 10 -4 6 3 10 8 10 11 0 2 -4 4 -10 4 -5 0 -10
-5 -10 -11z"/>
<path d="M2265 3120 c-8 -13 5 -13 25 0 13 8 13 10 -2 10 -9 0 -20 -4 -23 -10z"/>
<path d="M10410 3080 c0 -5 5 -10 10 -10 6 0 10 5 10 10 0 6 -4 10 -10 10 -5
0 -10 -4 -10 -10z"/>
<path d="M2171 3024 c0 -11 3 -14 6 -6 3 7 2 16 -1 19 -3 4 -6 -2 -5 -13z"/>
<path d="M2260 3005 c0 -8 4 -15 8 -15 5 0 9 7 9 15 0 8 -4 15 -9 15 -4 0 -8
-7 -8 -15z"/>
<path d="M2178 2923 c2 -38 8 -81 13 -97 11 -36 12 -273 0 -280 -4 -3 -7 -18
-6 -33 1 -15 3 -38 3 -50 2 -25 35 -32 49 -10 4 6 8 58 10 114 1 57 4 107 7
111 3 5 5 35 5 67 -1 32 4 60 9 64 6 4 9 28 7 56 -2 27 1 55 7 62 8 10 5 13
-11 13 -12 0 -21 -6 -21 -16 0 -12 -6 -11 -29 8 -16 13 -29 29 -28 37 1 8 -3
16 -8 18 -7 2 -10 -20 -7 -64z"/>
<path d="M7630 2698 c0 -10 7 -18 15 -18 8 0 15 8 15 18 0 10 -7 19 -15 19 -8
0 -15 -9 -15 -19z"/>
<path d="M9150 2630 c0 -5 5 -10 11 -10 5 0 7 5 4 10 -3 6 -8 10 -11 10 -2 0
-4 -4 -4 -10z"/>
</g>
</svg>
